<svg xmlns="http://www.w3.org/2000/svg" xmlns:xlink="http://www.w3.org/1999/xlink" width="58.28mm" height="25.7mm" viewBox="0 0 165.21 72.85">
  <defs>
    <radialGradient id="Sfumatura_senza_nome_34" data-name="Sfumatura senza nome 34" cx="30.43" cy="35.22" r="19.64" gradientUnits="userSpaceOnUse">
      <stop offset="0" stop-color="#c30d0e"/>
      <stop offset="1" stop-color="#821716"/>
    </radialGradient>
  </defs>
  <g id="Livello_2" data-name="Livello 2">
    <g id="Livello_1-2" data-name="Livello 1">
      <g>
        <g>
          <path d="M71.56,23.92V17.79h1.75a7.65,7.65,0,0,1,1.43.09,1.8,1.8,0,0,1,.7.32,1.61,1.61,0,0,1,.51.64,2,2,0,0,1,.18.86,1.86,1.86,0,0,1-.35,1.16,1.79,1.79,0,0,1-1,.59l1.67,2.47H74.54l-1.41-2.4v2.4Zm1.57-3.23h.31a1.3,1.3,0,0,0,.79-.19.65.65,0,0,0,.25-.58.83.83,0,0,0-.23-.65,1.25,1.25,0,0,0-.79-.2h-.33Z"/>
          <path d="M76.91,23.92V17.79h3.76v1.34H78.54V20.2h2v1.31h-2v1h2.13v1.37Z"/>
          <path d="M84.54,21.66V20.38h3.29v.14a1.28,1.28,0,0,1,0,.22A3.43,3.43,0,0,1,87,23.2a3.11,3.11,0,0,1-2.35.87,3.67,3.67,0,0,1-1.33-.22,3,3,0,0,1-1-.69,3.23,3.23,0,0,1-.68-1,3.36,3.36,0,0,1-.24-1.26,3.22,3.22,0,0,1,.24-1.26,3,3,0,0,1,.7-1,3.06,3.06,0,0,1,1.06-.68,3.65,3.65,0,0,1,1.29-.23,3.51,3.51,0,0,1,1.59.35,3.22,3.22,0,0,1,1.17,1.07L86,19.76a1.83,1.83,0,0,0-.59-.53,1.45,1.45,0,0,0-.72-.17,1.48,1.48,0,0,0-1.19.5A2.06,2.06,0,0,0,83,20.93a2.11,2.11,0,0,0,.43,1.38,1.51,1.51,0,0,0,1.19.5,1.8,1.8,0,0,0,1.06-.31,1.23,1.23,0,0,0,.5-.84Z"/>
          <path d="M88.75,23.92V17.79h1.69v6.13Z"/>
          <path d="M97.93,20.87a3.22,3.22,0,0,1-.24,1.24,3.28,3.28,0,0,1-1.78,1.73,3.28,3.28,0,0,1-2.51,0,2.93,2.93,0,0,1-1.06-.7,3,3,0,0,1-.72-1,3.09,3.09,0,0,1-.25-1.24,3.13,3.13,0,0,1,1-2.28,3.21,3.21,0,0,1,1.06-.7,3.33,3.33,0,0,1,3.58.7,3.11,3.11,0,0,1,1,2.28Zm-3.28,1.8a1.5,1.5,0,0,0,1.16-.51,1.88,1.88,0,0,0,.45-1.29,1.84,1.84,0,0,0-.46-1.29,1.55,1.55,0,0,0-2.3,0,2.07,2.07,0,0,0,0,2.58A1.46,1.46,0,0,0,94.65,22.67Z"/>
          <path d="M98.83,23.92V17.79h1.61l2.32,3.15c0,.07.12.2.22.39l.34.7c0-.26-.06-.49-.08-.68s0-.38,0-.53v-3h1.61v6.13h-1.61l-2.32-3.17a2.78,2.78,0,0,1-.22-.38l-.33-.69c0,.26.05.49.07.68s0,.38,0,.53v3Z"/>
          <path d="M106,23.92V17.79h3.76v1.34h-2.13V20.2h2v1.31h-2v1h2.13v1.37Z"/>
          <path d="M112.51,23.92l2.12-6.13h2.1l2.12,6.13h-1.67l-.31-1.09h-2.38l-.31,1.09Zm2.34-2.29h1.67l-.62-2-.09-.3-.12-.53c0,.15-.08.29-.11.43s-.07.27-.11.4Z"/>
          <path d="M119.09,17.79h1.67v3c0,.44,0,.76,0,.95a1.89,1.89,0,0,0,.11.48.79.79,0,0,0,.34.36,1.28,1.28,0,0,0,.58.12,1.25,1.25,0,0,0,.58-.12.79.79,0,0,0,.34-.36,1.89,1.89,0,0,0,.11-.48,7.17,7.17,0,0,0,0-.95v-3h1.66V21a6.66,6.66,0,0,1-.12,1.49,2,2,0,0,1-.41.82,1.87,1.87,0,0,1-.86.56,4,4,0,0,1-1.34.19,4,4,0,0,1-1.33-.19,1.85,1.85,0,0,1-.87-.56,2.18,2.18,0,0,1-.41-.82,6.66,6.66,0,0,1-.12-1.49V17.79Z"/>
          <path d="M126.55,23.92V19.24h-1.37V17.79h4.42v1.45h-1.38v4.68Z"/>
          <path d="M136.56,20.87a3.22,3.22,0,0,1-.24,1.24,3.28,3.28,0,0,1-1.78,1.73,3.28,3.28,0,0,1-2.51,0,2.93,2.93,0,0,1-1.06-.7,3,3,0,0,1-.72-1,3.09,3.09,0,0,1-.25-1.24,3.13,3.13,0,0,1,1-2.28,3.21,3.21,0,0,1,1.06-.7,3.36,3.36,0,0,1,1.26-.24,3.44,3.44,0,0,1,1.26.24,3.32,3.32,0,0,1,1.06.7,3.06,3.06,0,0,1,.71,1A3.22,3.22,0,0,1,136.56,20.87Zm-3.27,1.8a1.49,1.49,0,0,0,1.15-.51,1.88,1.88,0,0,0,.45-1.29,1.84,1.84,0,0,0-.46-1.29,1.48,1.48,0,0,0-1.14-.51,1.46,1.46,0,0,0-1.15.51,1.84,1.84,0,0,0-.46,1.29,1.86,1.86,0,0,0,.45,1.29A1.47,1.47,0,0,0,133.29,22.67Zm-1.22-7h1.18l.77,1.46h-.65Z"/>
          <path d="M137.46,23.92V17.79h1.61l2.32,3.15a4.14,4.14,0,0,1,.22.39c.1.2.22.43.34.7,0-.26-.06-.49-.08-.68s0-.38,0-.53v-3h1.61v6.13h-1.61l-2.32-3.17c0-.06-.12-.19-.22-.38l-.33-.69c0,.26.05.49.07.68s0,.38,0,.53v3Z"/>
          <path d="M150.92,20.87a3.22,3.22,0,0,1-.24,1.24,3.28,3.28,0,0,1-1.78,1.73,3.22,3.22,0,0,1-1.26.25,3.18,3.18,0,0,1-1.26-.25,3.11,3.11,0,0,1-1.06-.7,3.31,3.31,0,0,1-.72-1,3.26,3.26,0,0,1-.24-1.24,3.22,3.22,0,0,1,.24-1.24,3.35,3.35,0,0,1,.72-1,3.43,3.43,0,0,1,1.06-.7,3.34,3.34,0,0,1,3.59.7,3.11,3.11,0,0,1,.95,2.28Zm-3.28,1.8a1.46,1.46,0,0,0,1.15-.51,1.84,1.84,0,0,0,.46-1.29,1.88,1.88,0,0,0-.46-1.29,1.55,1.55,0,0,0-2.3,0,1.88,1.88,0,0,0-.45,1.29,1.9,1.9,0,0,0,.44,1.29A1.48,1.48,0,0,0,147.64,22.67Z"/>
          <path d="M158.85,23.92h-1.56l-.36-2.65c0-.19-.05-.39-.07-.62s0-.48-.06-.75a6.85,6.85,0,0,1-.23,1l0,.18-.84,2.87h-1.11l-.84-2.87a1.32,1.32,0,0,0,0-.18,8.6,8.6,0,0,1-.23-1q0,.34-.06.69c0,.23,0,.45-.08.68L153,23.92H151.4l.95-6.13H154l.93,3.16s0,.06,0,.11a4.38,4.38,0,0,1,.17.73,3.12,3.12,0,0,1,.06-.37q0-.2.12-.48l.94-3.15h1.66Z"/>
          <path d="M158.88,23.92,161,17.79h2.09l2.12,6.13h-1.66l-.31-1.09h-2.38l-.32,1.09Zm2.34-2.29h1.67l-.63-2c0-.07,0-.16-.08-.3s-.08-.31-.13-.53c0,.15-.07.29-.1.43s-.08.27-.11.4Z"/>
          <path d="M71.56,33.82V27.69h1.28a10.43,10.43,0,0,1,2,.13,2.88,2.88,0,0,1,1,.45,2.63,2.63,0,0,1,.89,1,3.65,3.65,0,0,1,0,2.9,2.63,2.63,0,0,1-.89,1,2.8,2.8,0,0,1-1,.44,8.47,8.47,0,0,1-1.77.13H71.56Zm1.66-1.37h.28A2.15,2.15,0,0,0,74.94,32a1.63,1.63,0,0,0,.45-1.28,1.66,1.66,0,0,0-.45-1.29,2.1,2.1,0,0,0-1.44-.41h-.28Z"/>
          <path d="M78,33.82V27.69h3.77V29H79.62V30.1h2v1.31h-2v1h2.13v1.37Z"/>
          <path d="M85.5,31.84a3.15,3.15,0,0,0,.74.63,1.42,1.42,0,0,0,.72.21.81.81,0,0,0,.55-.18.55.55,0,0,0,.22-.45.59.59,0,0,0-.19-.48,2.34,2.34,0,0,0-.84-.34,2.77,2.77,0,0,1-1.28-.63,1.48,1.48,0,0,1-.37-1.07,1.9,1.9,0,0,1,.59-1.44,2.13,2.13,0,0,1,1.53-.55,3.37,3.37,0,0,1,1,.13,3.26,3.26,0,0,1,.86.42l-.52,1.2a2.51,2.51,0,0,0-.59-.37,1.59,1.59,0,0,0-.59-.12.75.75,0,0,0-.49.15.42.42,0,0,0-.19.37.47.47,0,0,0,.16.37,2.16,2.16,0,0,0,.64.26l.08,0a3.15,3.15,0,0,1,1.35.61,1.63,1.63,0,0,1,.33.54,2.23,2.23,0,0,1,.11.7,2,2,0,0,1-.64,1.57,2.41,2.41,0,0,1-1.71.6,3.13,3.13,0,0,1-1.17-.22,3.19,3.19,0,0,1-1-.69Z"/>
          <path d="M89.34,33.82l2.12-6.13h2.1l2.12,6.13H94l-.31-1.1H91.33L91,33.82Zm2.35-2.29h1.66l-.62-2c0-.06,0-.16-.08-.29s-.08-.32-.13-.53c0,.15-.08.29-.11.43a3.64,3.64,0,0,1-.11.39Z"/>
          <path d="M96.11,33.82V27.69h1.75a7.65,7.65,0,0,1,1.43.09,1.8,1.8,0,0,1,.7.32,1.61,1.61,0,0,1,.51.64,2,2,0,0,1,.18.86,1.86,1.86,0,0,1-.35,1.16,1.79,1.79,0,0,1-1,.59L101,33.82H99.09l-1.41-2.4v2.4Zm1.57-3.23H98a1.3,1.3,0,0,0,.79-.19.65.65,0,0,0,.25-.58.83.83,0,0,0-.23-.65A1.25,1.25,0,0,0,98,29h-.33Z"/>
          <path d="M101.46,33.82V27.69h1.28a10.5,10.5,0,0,1,2,.13,2.88,2.88,0,0,1,1,.45,2.63,2.63,0,0,1,.89,1,3.65,3.65,0,0,1,0,2.9,2.63,2.63,0,0,1-.89,1,2.8,2.8,0,0,1-1,.44,8.47,8.47,0,0,1-1.77.13h-1.56Zm1.65-1.37h.29a2.1,2.1,0,0,0,1.43-.41,1.6,1.6,0,0,0,.46-1.28,1.62,1.62,0,0,0-.46-1.29,2.05,2.05,0,0,0-1.43-.41h-.29Z"/>
          <path d="M107.93,33.82V27.69h1.68v6.13Z"/>
          <path d="M113.73,31.56V30.28H117a.53.53,0,0,1,0,.13v.23a3.47,3.47,0,0,1-.83,2.46,3.13,3.13,0,0,1-2.36.87,3.62,3.62,0,0,1-1.32-.22,2.87,2.87,0,0,1-1-.69,3.08,3.08,0,0,1-.68-1,3.36,3.36,0,0,1-.24-1.26,3.5,3.5,0,0,1,.23-1.27,3.09,3.09,0,0,1,.7-1,3.15,3.15,0,0,1,1.06-.68,3.44,3.44,0,0,1,1.29-.23,3.55,3.55,0,0,1,1.6.35A3.19,3.19,0,0,1,116.6,29l-1.45.7a1.83,1.83,0,0,0-.59-.53,1.48,1.48,0,0,0-.73-.17,1.46,1.46,0,0,0-1.18.5,2,2,0,0,0-.43,1.36,2,2,0,0,0,.43,1.38,1.47,1.47,0,0,0,1.18.51,1.83,1.83,0,0,0,1.07-.31,1.22,1.22,0,0,0,.49-.84Z"/>
          <path d="M117.89,33.82V27.69h1.62l2.31,3.15a4.14,4.14,0,0,1,.22.39,7.44,7.44,0,0,1,.34.69c0-.25-.06-.48-.07-.68a4.88,4.88,0,0,1,0-.52v-3h1.6v6.13h-1.6L120,30.65a3.88,3.88,0,0,1-.23-.38l-.33-.69c0,.26.06.49.07.68s0,.38,0,.53v3Z"/>
          <path d="M124.33,33.82l2.12-6.13h2.09l2.13,6.13H129l-.31-1.1h-2.38l-.31,1.1Zm2.34-2.29h1.67l-.63-2c0-.06,0-.16-.08-.29s-.07-.32-.13-.53c0,.15-.07.29-.1.43s-.07.27-.11.39Z"/>
          <path d="M71.56,47.12V41h1.75a7.65,7.65,0,0,1,1.43.09,1.8,1.8,0,0,1,.7.32A1.61,1.61,0,0,1,76,42a2,2,0,0,1,.18.86,1.86,1.86,0,0,1-.35,1.16,1.79,1.79,0,0,1-1,.59l1.67,2.47H74.54l-1.41-2.4v2.4Zm1.57-3.23h.31a1.37,1.37,0,0,0,.79-.19.65.65,0,0,0,.25-.58.83.83,0,0,0-.23-.65,1.25,1.25,0,0,0-.79-.2h-.33Z"/>
          <path d="M76.91,47.12V41h3.76v1.34H78.54V43.4h2v1.31h-2v1h2.13v1.37Z"/>
          <path d="M84.54,44.86V43.58h3.29v.13a1.42,1.42,0,0,1,0,.23A3.43,3.43,0,0,1,87,46.4a3.11,3.11,0,0,1-2.35.87,3.67,3.67,0,0,1-1.33-.22,3,3,0,0,1-1-.69,3.23,3.23,0,0,1-.68-1,3.36,3.36,0,0,1-.24-1.26,3.3,3.3,0,0,1,.24-1.27,3,3,0,0,1,.7-1,3.06,3.06,0,0,1,1.06-.68,3.44,3.44,0,0,1,1.29-.23,3.51,3.51,0,0,1,1.59.35,3.19,3.19,0,0,1,1.17,1.06L86,43a1.83,1.83,0,0,0-.59-.53,1.45,1.45,0,0,0-.72-.17,1.48,1.48,0,0,0-1.19.5,2.4,2.4,0,0,0,0,2.74,1.49,1.49,0,0,0,1.19.51,1.8,1.8,0,0,0,1.06-.31,1.23,1.23,0,0,0,.5-.84Z"/>
          <path d="M88.75,47.12V41h1.69v6.13Z"/>
          <path d="M97.93,44.07a3.22,3.22,0,0,1-.24,1.24A3.28,3.28,0,0,1,95.91,47a3.28,3.28,0,0,1-2.51,0,3.34,3.34,0,0,1-1.78-1.74,3.18,3.18,0,0,1,0-2.47,3,3,0,0,1,.72-1,3.21,3.21,0,0,1,1.06-.7,3.33,3.33,0,0,1,3.58.7,3.11,3.11,0,0,1,1,2.28Zm-3.28,1.8a1.5,1.5,0,0,0,1.16-.51,1.88,1.88,0,0,0,.45-1.29,1.84,1.84,0,0,0-.46-1.29,1.53,1.53,0,0,0-2.3,0,2.07,2.07,0,0,0,0,2.58A1.46,1.46,0,0,0,94.65,45.87Z"/>
          <path d="M98.83,47.12V41h1.61l2.32,3.15c0,.07.12.2.22.39s.21.42.34.69c0-.25-.06-.48-.08-.68s0-.37,0-.52V41h1.61v6.13h-1.61L100.9,44a2.78,2.78,0,0,1-.22-.38l-.33-.69c0,.26.05.48.07.68s0,.38,0,.53v3Z"/>
          <path d="M106,47.12V41h3.76v1.34h-2.13V43.4h2v1.31h-2v1h2.13v1.37Z"/>
          <path d="M112.51,47.12,114.63,41h2.1l2.12,6.13h-1.67l-.31-1.1h-2.38l-.31,1.1Zm2.34-2.29h1.67l-.62-2-.09-.29c0-.14-.07-.32-.12-.53,0,.15-.08.29-.11.43s-.07.27-.11.39Z"/>
          <path d="M119.09,41h1.67v3c0,.44,0,.75,0,1a1.89,1.89,0,0,0,.11.48.72.72,0,0,0,.34.35,1.16,1.16,0,0,0,.58.13,1.13,1.13,0,0,0,.58-.13.72.72,0,0,0,.34-.35,1.89,1.89,0,0,0,.11-.48,7.26,7.26,0,0,0,0-1V41h1.66v3.24a6.72,6.72,0,0,1-.12,1.49,2,2,0,0,1-.41.82,1.87,1.87,0,0,1-.86.56,4.32,4.32,0,0,1-1.34.19,4.25,4.25,0,0,1-1.33-.19,1.85,1.85,0,0,1-.87-.56,2.18,2.18,0,0,1-.41-.82,6.72,6.72,0,0,1-.12-1.49V41Z"/>
          <path d="M126.55,47.12V42.44h-1.37V41h4.42v1.45h-1.38v4.68Z"/>
          <path d="M136.41,44.07a3.22,3.22,0,0,1-.24,1.24A3.28,3.28,0,0,1,134.39,47a3.28,3.28,0,0,1-2.51,0,3.34,3.34,0,0,1-1.78-1.74,3.18,3.18,0,0,1,0-2.47,3,3,0,0,1,.72-1,3.21,3.21,0,0,1,1.06-.7,3.36,3.36,0,0,1,1.26-.24,3.25,3.25,0,0,1,2.32.94,3.06,3.06,0,0,1,.71,1A3.19,3.19,0,0,1,136.41,44.07Zm-3.27,1.8a1.49,1.49,0,0,0,1.15-.51,1.88,1.88,0,0,0,.45-1.29,1.84,1.84,0,0,0-.46-1.29,1.53,1.53,0,0,0-2.3,0,2.07,2.07,0,0,0,0,2.58A1.47,1.47,0,0,0,133.14,45.87Z"/>
          <path d="M137.31,47.12V41h1.61l2.32,3.15c0,.07.12.2.22.39s.22.42.34.69c0-.25-.06-.48-.08-.68s0-.37,0-.52V41h1.61v6.13H141.7L139.38,44c0-.06-.12-.19-.22-.38l-.33-.69c0,.26,0,.48.07.68s0,.38,0,.53v3Z"/>
          <path d="M150.77,44.07a3.22,3.22,0,0,1-.24,1.24,3.28,3.28,0,0,1-.71,1,3.15,3.15,0,0,1-1.07.7,3.41,3.41,0,0,1-1.26.25,3.37,3.37,0,0,1-1.26-.25,3.11,3.11,0,0,1-1.06-.7,3.07,3.07,0,0,1-1-2.27,3.19,3.19,0,0,1,.24-1.24,3.24,3.24,0,0,1,.72-1,3.43,3.43,0,0,1,1.06-.7,3.34,3.34,0,0,1,3.59.7,3.22,3.22,0,0,1,1,2.28Zm-3.28,1.8a1.46,1.46,0,0,0,1.15-.51,1.84,1.84,0,0,0,.46-1.29,1.88,1.88,0,0,0-.46-1.29,1.53,1.53,0,0,0-2.3,0,1.88,1.88,0,0,0-.45,1.29,1.92,1.92,0,0,0,.44,1.29A1.48,1.48,0,0,0,147.49,45.87Z"/>
          <path d="M158.7,47.12h-1.56l-.36-2.65c0-.19-.05-.4-.07-.63s0-.48-.06-.75a6.94,6.94,0,0,1-.23,1l0,.18-.84,2.87h-1.11l-.84-2.87a1.32,1.32,0,0,0-.05-.18,8.6,8.6,0,0,1-.23-1q0,.34-.06.69c0,.23-.05.45-.08.68l-.36,2.65h-1.55L152.2,41h1.65l.93,3.16s0,.06,0,.11A4.38,4.38,0,0,1,155,45a2.83,2.83,0,0,1,.06-.37l.12-.48L156.1,41h1.66Z"/>
          <path d="M158.73,47.12,160.85,41h2.09l2.12,6.13H163.4l-.31-1.1h-2.38l-.32,1.1Zm2.34-2.29h1.67l-.63-2c0-.06,0-.16-.08-.29s-.08-.32-.13-.53c0,.15-.07.29-.1.43s-.08.27-.11.39Z"/>
          <path d="M71.56,57V50.89h1.28a10.43,10.43,0,0,1,2,.13,2.88,2.88,0,0,1,1,.45,2.63,2.63,0,0,1,.89,1,3.65,3.65,0,0,1,0,2.9,2.63,2.63,0,0,1-.89,1,2.8,2.8,0,0,1-1,.44,8.47,8.47,0,0,1-1.77.13H71.56Zm1.66-1.37h.28a2.15,2.15,0,0,0,1.44-.41A1.63,1.63,0,0,0,75.39,54a1.66,1.66,0,0,0-.45-1.29,2.1,2.1,0,0,0-1.44-.41h-.28Z"/>
          <path d="M78,57V50.89h3.77v1.34H79.62V53.3h2v1.31h-2v1h2.13V57Z"/>
          <path d="M82.7,57V50.89h1.67v4.7h2.08V57Z"/>
          <path d="M87.11,57V50.89h1.67v4.7h2.08V57Z"/>
          <path d="M90.81,57l2.11-6.13H95L97.14,57H95.48l-.31-1.1H92.79L92.47,57Zm2.34-2.29h1.66l-.62-2c0-.06,0-.16-.08-.29s-.08-.32-.13-.53c0,.15-.07.29-.11.43s-.07.27-.1.39Z"/>
          <path d="M100.38,55a2.93,2.93,0,0,0,.73.63,1.45,1.45,0,0,0,.73.21.85.85,0,0,0,.55-.18.57.57,0,0,0,.21-.45.62.62,0,0,0-.18-.48,2.51,2.51,0,0,0-.85-.34,2.73,2.73,0,0,1-1.27-.63,1.49,1.49,0,0,1-.38-1.07,1.9,1.9,0,0,1,.59-1.44,2.13,2.13,0,0,1,1.53-.55,3.32,3.32,0,0,1,1,.13,3.12,3.12,0,0,1,.86.42l-.52,1.2a2.46,2.46,0,0,0-.58-.37,1.61,1.61,0,0,0-.6-.12.77.77,0,0,0-.49.15.44.44,0,0,0-.19.37.48.48,0,0,0,.17.37,1.74,1.74,0,0,0,.64.26l.07,0a3.21,3.21,0,0,1,1.35.61,1.48,1.48,0,0,1,.33.54,2,2,0,0,1,.11.7,2,2,0,0,1-.64,1.57,2.41,2.41,0,0,1-1.71.6,3.13,3.13,0,0,1-1.17-.22,3.31,3.31,0,0,1-1-.69Z"/>
          <path d="M104.22,57l2.11-6.13h2.1L110.55,57h-1.66l-.31-1.1H106.2l-.32,1.1Zm2.34-2.29h1.67l-.63-2c0-.06,0-.16-.08-.29s-.08-.32-.13-.53c0,.15-.07.29-.11.43s-.07.27-.1.39Z"/>
          <path d="M111,57V50.89h1.75a7.5,7.5,0,0,1,1.43.09,1.74,1.74,0,0,1,.7.32,1.61,1.61,0,0,1,.51.64,2,2,0,0,1,.18.86A1.86,1.86,0,0,1,115.2,54a1.73,1.73,0,0,1-1,.59L115.85,57H114l-1.41-2.4V57Zm1.57-3.23h.31a1.28,1.28,0,0,0,.79-.19.65.65,0,0,0,.25-.58.83.83,0,0,0-.23-.65,1.22,1.22,0,0,0-.78-.2h-.34Z"/>
          <path d="M116.34,57V50.89h1.27a10.55,10.55,0,0,1,2,.13,3,3,0,0,1,1,.45,2.6,2.6,0,0,1,.88,1,3.65,3.65,0,0,1,0,2.9,2.6,2.6,0,0,1-.88,1,2.93,2.93,0,0,1-1,.44,8.43,8.43,0,0,1-1.76.13h-1.56ZM118,55.65h.28a2.12,2.12,0,0,0,1.44-.41,1.63,1.63,0,0,0,.45-1.28,1.66,1.66,0,0,0-.45-1.29,2.07,2.07,0,0,0-1.44-.41H118Z"/>
          <path d="M122.76,57V50.89h3.76v1.34h-2.13V53.3h2v1.31h-2v1h2.13V57Z"/>
          <path d="M130.39,54.76V53.48h3.29v.36a3.43,3.43,0,0,1-.83,2.46,3.12,3.12,0,0,1-2.36.87,3.62,3.62,0,0,1-1.32-.22,2.87,2.87,0,0,1-1-.69,3.08,3.08,0,0,1-.68-1,3.36,3.36,0,0,1-.24-1.26,3.3,3.3,0,0,1,.24-1.27,3,3,0,0,1,.7-1,3,3,0,0,1,1-.68,3.44,3.44,0,0,1,1.29-.23,3.55,3.55,0,0,1,1.6.35,3.28,3.28,0,0,1,1.17,1.06l-1.45.7a1.83,1.83,0,0,0-.59-.53,1.48,1.48,0,0,0-.73-.17,1.46,1.46,0,0,0-1.18.5,2.4,2.4,0,0,0,0,2.74,1.47,1.47,0,0,0,1.18.51,1.83,1.83,0,0,0,1.07-.31,1.19,1.19,0,0,0,.49-.84Z"/>
          <path d="M134.55,57V50.89h1.62L138.49,54l.22.39c.1.19.21.43.33.69,0-.25-.06-.48-.07-.67a5.16,5.16,0,0,1,0-.53v-3h1.6V57H139l-2.32-3.17a3.88,3.88,0,0,1-.23-.38l-.33-.69c0,.26.06.49.07.68s0,.38,0,.53v3Z"/>
          <path d="M141,57l2.12-6.13h2.1L147.33,57h-1.67l-.31-1.1H143l-.32,1.1Zm2.35-2.29H145l-.62-2c0-.06,0-.16-.08-.29s-.08-.32-.13-.53c0,.15-.08.29-.11.43s-.07.27-.11.39Z"/>
        </g>
        <g>
          <path d="M33.85,11.9a1.74,1.74,0,0,1-.87.23,1.76,1.76,0,0,1-1.73-1.35,2.28,2.28,0,0,1,1.61-2.67A3.36,3.36,0,0,1,33.72,8a3.84,3.84,0,0,0-1-1.92,1.61,1.61,0,0,1-.47-1.4A2,2,0,0,0,31.54,3a7.25,7.25,0,0,1-.79-1,2.17,2.17,0,0,1-.31-.79,2.16,2.16,0,0,1-.33.81,6.66,6.66,0,0,1-.77,1,2,2,0,0,0-.69,1.6A1.58,1.58,0,0,1,28.17,6a3.82,3.82,0,0,0-1,1.91,3.45,3.45,0,0,1,.85.16,2.27,2.27,0,0,1,1.6,2.67A1.78,1.78,0,0,1,27,11.9a1.41,1.41,0,0,1-.81-1.18c-.44.24-1.17.7-2.22,1.43h.09A4,4,0,0,1,27,13.26a2.5,2.5,0,0,1,.54,2,2,2,0,0,1-.1.29,7.59,7.59,0,0,0,2.8-1.61l.19-.16.19.16a7.48,7.48,0,0,0,2.79,1.61,1.93,1.93,0,0,1-.11-.34,2.44,2.44,0,0,1,.54-1.9,4,4,0,0,1,2.94-1.11h.1c-1-.73-1.79-1.19-2.22-1.43A1.45,1.45,0,0,1,33.85,11.9Z" style="fill: #fff"/>
          <path d="M8.45,24.55l-.29,0a1.3,1.3,0,0,0-1,.42,4.63,4.63,0,0,0-.76,3.27c0,.63.27,1.27,1.84,1.27a8.61,8.61,0,0,0,1.48-.15,30.05,30.05,0,0,1,1-4.42A17.43,17.43,0,0,1,9,24.64Z" style="fill: #fff"/>
          <path d="M10.3,18.38a1.77,1.77,0,0,0-1.41.73,2.66,2.66,0,0,0-.38,2.33c.28,1.1,2,1.18,2.58,1.18a3.85,3.85,0,0,0,.48,0,16.46,16.46,0,0,1,1.32-2.66c-.13-.09-.27-.21-.44-.34a7.68,7.68,0,0,0-1.7-1.16A1.74,1.74,0,0,0,10.3,18.38Z" style="fill: #fff"/>
          <path d="M40.53,8.79a1.8,1.8,0,0,1-.07-.9,1.76,1.76,0,0,1,.1-.42,2,2,0,0,0-.75.55,2.12,2.12,0,0,0-.29,2.07c0,.05,0,.11.06.19A1.53,1.53,0,0,0,40,11L38.71,10a3.8,3.8,0,0,1-1.63-3.21,2.29,2.29,0,0,1,.08-.35l0-.08a.52.52,0,0,1,.07-.15l0-.06a.46.46,0,0,0,.07-.07l.05,0,.07,0h0a.36.36,0,0,1,.18.07h0a1.17,1.17,0,0,1,.16.15.64.64,0,0,0,.25.19l.1,0a.58.58,0,0,0,.19,0h0a.59.59,0,0,0,.23,0l.08,0A.78.78,0,0,0,39,6.36L39,6.3a.87.87,0,0,0,.19-.23v0a.78.78,0,0,0,.09-.27V5.69a.71.71,0,0,0,0-.25l0-.11A1.5,1.5,0,0,0,39.08,5a1.25,1.25,0,0,0-.23-.23l-.1-.06a1.18,1.18,0,0,0-.19-.11l-.14,0-.21-.07-.15,0-.19,0h0l-.23,0-.18,0a1.22,1.22,0,0,0-.24.1L37,4.64l-.25.21a1.36,1.36,0,0,0-.12.12,2.27,2.27,0,0,0-.34.48,4,4,0,0,0-.19,2.31,3.81,3.81,0,0,0,.12.51,2.3,2.3,0,0,0,.42.81l.24.3.08.08a.81.81,0,0,0,.16.16h0L37,9.51l-.08,0-.2-.11a.47.47,0,0,0-.12-.07l-.23-.12-.17-.08L35.9,9l-.19-.08-.3-.11-.2-.06-.35-.09-.19,0a1.9,1.9,0,0,0-.25,0l-.29,0H34l-.25,0h-.17a2.8,2.8,0,0,0-.5.12,2.13,2.13,0,0,0-.73.42,1.52,1.52,0,0,0-.39.54,1.62,1.62,0,0,0-.15.8,1.12,1.12,0,0,0,0,.21h0A1.23,1.23,0,0,0,32,11l.06.09a1,1,0,0,0,.2.2l.06.05a1.4,1.4,0,0,0,.3.15l.07,0a1.26,1.26,0,0,0,.27,0H33l.19,0,.09,0a1.17,1.17,0,0,0,.26-.1.91.91,0,0,0,.53-.7c0-.23-.06-.44,0-.58s.07-.16.22-.19h0l.11,0,.1,0,.19.09.18.09.26.14.23.14.32.2.28.17.38.25.31.21.42.29.34.23.44.31.13.1h0c.23,0,.45.08.68.12s.38.05.57.1.57.17.89.29a15.9,15.9,0,0,1,6.78,5.33c1.07-.45,2.29-1.39,2.15-2.59a5.1,5.1,0,0,0-1.86-3.27,2.4,2.4,0,0,1-.3,1.18A2.13,2.13,0,0,1,45,14.54H45a2.59,2.59,0,0,1-2.12-1.14,2.83,2.83,0,0,1-.14-2.71,3.55,3.55,0,0,1,.48-.79A4.53,4.53,0,0,1,41,9.4,1.56,1.56,0,0,1,40.53,8.79Z" style="fill: #fff"/>
          <path d="M5.79,23.15a4.52,4.52,0,0,1,.52-.44l0-.25c-.2-1.27-.67-4.24,2.47-6.15a3.91,3.91,0,0,1,.44-.25c.06-.14.13-.43.2-.67A8.87,8.87,0,0,1,11,11.84,16.19,16.19,0,0,0,2.71,23.18a14.53,14.53,0,0,0,1.12,9.46,9,9,0,0,1,.62-2.45C4,28,3.75,25.24,5.79,23.15Z" style="fill: #fff"/>
          <path d="M14.64,53.21a6.27,6.27,0,0,1-1.5.93,26.33,26.33,0,0,0,3.52,3.92,11.65,11.65,0,0,0,1.22-1.21A20.88,20.88,0,0,1,14.64,53.21Z" style="fill: #fff"/>
          <path d="M9.44,47.24a30.83,30.83,0,0,0,2.33,4.83,4.46,4.46,0,0,0,1.63-.91,28.56,28.56,0,0,1-2-4.53A7.78,7.78,0,0,1,9.44,47.24Z" style="fill: #fff"/>
          <path d="M9.57,37.17a40.27,40.27,0,0,1-.1-5.4c-.36,0-.7.05-1,.05a12.13,12.13,0,0,1-1.74-.14H6.6a.33.33,0,0,0-.27.11c-.15.16-.49.75-.34,2.63.2,2.6,1.22,3,2.19,3A6.64,6.64,0,0,0,9.57,37.17Z" style="fill: #fff"/>
          <path d="M33.17,32.45H48.91c0-.18,0-.34,0-.54v0c-.47-11.44-6.65-17.42-12.52-17.42h0a1.57,1.57,0,0,1,.13.65,1.48,1.48,0,0,1-.66,1.24,1.49,1.49,0,0,1-.87.27,1.84,1.84,0,0,1-.33,0,1.57,1.57,0,0,1-.71-.37,5.16,5.16,0,0,1-.75-.19Zm5.31-10.8a3.31,3.31,0,0,1,2.71-.75,2.35,2.35,0,0,1,2,2.66,3.2,3.2,0,0,1-.6,1.47,8.52,8.52,0,0,1-2.69-1.61c-.81-.65-.81-.65-1.76-1.36Zm-1.34,2.48.11-.33a16,16,0,0,0,5.19,1.73,1.43,1.43,0,0,0-.2,1.5,3.71,3.71,0,0,1,.41,1.41,31.15,31.15,0,0,0-3.72,1.24c-.78.33-1.14.34-.72-.45.75-1.4,1.5-1.79,1.25-1.92-.45-.31-1.54.66-1.72-.14l-.19-.56c0-.27.83-.12.18-.34-.37-.17-.29-.21-.29-.26a3.39,3.39,0,0,1,.13-.66s-.4,0-.51-.22A1.81,1.81,0,0,1,37.14,24.13Z" style="fill: #fff"/>
          <path d="M9.82,39.39a9.46,9.46,0,0,1-2,.21H7.39A42,42,0,0,0,8.65,44.9a10,10,0,0,0,2.1-.58C10.22,42,10,40.3,9.82,39.39Z" style="fill: #fff"/>
          <path d="M27.69,16.05h0a6.08,6.08,0,0,1-.74.18,1.62,1.62,0,0,1-.71.37,1.84,1.84,0,0,1-.33,0,1.52,1.52,0,0,1-.88-.27,1.48,1.48,0,0,1-.66-1.24,1.58,1.58,0,0,1,.14-.65h0c-5.88,0-12.06,6-12.53,17.42v0c0,.2,0,.36,0,.54H27.69ZM19.57,29.68c-.79.33-1.15.34-.73-.45.75-1.4,1.51-1.79,1.26-1.92-.46-.31-1.54.66-1.73-.14l-.19-.56c0-.27.83-.12.19-.34-.37-.17-.29-.21-.3-.26a3.85,3.85,0,0,1,.14-.66s-.41,0-.51-.22a1.72,1.72,0,0,1,.08-1l.11-.33a16,16,0,0,0,5.19,1.73,1.41,1.41,0,0,0-.2,1.5,3.71,3.71,0,0,1,.41,1.41A30,30,0,0,0,19.57,29.68ZM23.25,25a8.64,8.64,0,0,1-2.69-1.61c-.81-.65-.81-.65-1.75-1.36l.31-.41a3.31,3.31,0,0,1,2.71-.75,2.34,2.34,0,0,1,2,2.66A3.2,3.2,0,0,1,23.25,25Z" style="fill: #fff"/>
          <path d="M29.62,61.42a.8.8,0,0,1-.67-.23,1.51,1.51,0,0,0-1.68-.28c-.25.13-.37.3-.36.41s.19.23.46.31a.26.26,0,0,1,.19.25.28.28,0,0,1-.19.26c-.27.07-.45.19-.46.3s.11.28.36.41A1.5,1.5,0,0,0,29,62.57a.84.84,0,0,1,.56-.25l.11,0a.88.88,0,0,1,0-.92Z" style="fill: #fff"/>
          <path d="M12.19,37.94c1.75,17.71,12.08,19.88,12.22,19.91a3.66,3.66,0,0,0,.84.11,2.47,2.47,0,0,0,1.12-.26,1.66,1.66,0,0,1-.06-2.49,1.79,1.79,0,0,1,1.17-.43l.21,0h0V37.94S14.94,38,12.19,37.94Zm7.38,11.62c-.79.33-1.15.34-.73-.45.75-1.4,1.51-1.79,1.26-1.92-.46-.31-1.54.66-1.73-.14l-.19-.56c0-.27.83-.12.19-.34-.37-.17-.29-.21-.3-.26a3.85,3.85,0,0,1,.14-.66s-.41,0-.51-.22a1.72,1.72,0,0,1,.08-1l.11-.33a16,16,0,0,0,5.19,1.73,1.43,1.43,0,0,0-.2,1.51,3.63,3.63,0,0,1,.41,1.4A30,30,0,0,0,19.57,49.56Zm3.68-4.65a8.55,8.55,0,0,1-2.69-1.6c-.81-.66-.81-.66-1.75-1.37l.31-.41a3.27,3.27,0,0,1,2.71-.74,2.33,2.33,0,0,1,2,2.65A3.2,3.2,0,0,1,23.25,44.91Z" style="fill: #fff"/>
          <path d="M23.45,11.8l.35-.23.42-.29.31-.21.38-.25.28-.17.32-.2.23-.14.26-.14.17-.09.19-.09.11,0,.1,0h0c.16,0,.21.09.22.19s0,.35,0,.58a.9.9,0,0,0,.52.7,1.17,1.17,0,0,0,.26.1l.1,0,.19,0h.09a1.17,1.17,0,0,0,.26,0l.08,0a1.68,1.68,0,0,0,.3-.15s0,0,.05-.05a1,1,0,0,0,.2-.2l.06-.09a1.25,1.25,0,0,0,.16-.35h0a1.18,1.18,0,0,0,0-.21,1.6,1.6,0,0,0-.14-.8,1.68,1.68,0,0,0-.4-.54A2.17,2.17,0,0,0,28,8.74l-.19-.08a2.8,2.8,0,0,0-.5-.12h-.17l-.25,0h-.15l-.29,0-.26,0-.18,0-.35.09-.2.06-.3.11L25,9l-.27.12-.16.08-.23.12-.13.07L24,9.46l-.09,0a1.16,1.16,0,0,0-.14.09l0,0h0a.81.81,0,0,0,.16-.16L24,9.38l.24-.3a4.07,4.07,0,0,0,.35-3.63A2.24,2.24,0,0,0,24.22,5a1.42,1.42,0,0,0-.13-.12,2.52,2.52,0,0,0-.25-.21l-.17-.08a1.22,1.22,0,0,0-.24-.1l-.18,0-.23,0h0l-.18,0-.16,0-.21.07-.14,0a1.18,1.18,0,0,0-.19.11.53.53,0,0,1-.1.06,1.19,1.19,0,0,0-.22.23,1.27,1.27,0,0,0-.2.38l0,.11a2.11,2.11,0,0,0,0,.25.28.28,0,0,0,0,.09.77.77,0,0,0,.08.27s0,0,0,0a.84.84,0,0,0,.18.23l.07.06.18.11.08,0a.69.69,0,0,0,.24,0h.05a.58.58,0,0,0,.18,0l.1,0A.64.64,0,0,0,23,6.31l.16-.15h0a.45.45,0,0,1,.18-.07h0l.07,0,0,0a.46.46,0,0,1,.07.07l.05.06.06.15s0,0,0,.08a2.24,2.24,0,0,1,.07.34h0a2.37,2.37,0,0,1,0,.59A4.14,4.14,0,0,1,22.15,10L20.9,11h0a1.15,1.15,0,0,0,.3-.46c.07-.17.11-.34.14-.43a2,2,0,0,0-1-2.62,1.8,1.8,0,0,1-.39,1.93,3,3,0,0,1-1.37.43l-.84.07h0a3.25,3.25,0,0,1,.49.79A2.8,2.8,0,0,1,18,13.4a2.57,2.57,0,0,1-2.12,1.14h-.05A2.15,2.15,0,0,1,14,13.37a2.52,2.52,0,0,1-.3-1.18,5.14,5.14,0,0,0-1.86,3.27c-.14,1.2,1.08,2.13,2.15,2.59a15.82,15.82,0,0,1,6.78-5.33c.33-.12.62-.21.9-.29a5.4,5.4,0,0,1,.58-.1c.22,0,.44-.1.66-.12h0l.14-.1Z" style="fill: #fff"/>
          <path d="M18.58,59.63a28.64,28.64,0,0,0,3.47,2.21,10.13,10.13,0,0,0,.66-1.91,19.16,19.16,0,0,1-3-1.63A9.24,9.24,0,0,1,18.58,59.63Z" style="fill: #fff"/>
          <path d="M30,62.72a.76.76,0,0,1-.25.66A1.42,1.42,0,0,0,29.43,65c.13.28.33.41.45.41s.24-.18.32-.45a.27.27,0,0,1,.5,0c.08.27.2.44.32.45s.31-.12.45-.41a1.44,1.44,0,0,0-.33-1.62.74.74,0,0,1-.25-.66.94.94,0,0,1-.45.11A.93.93,0,0,1,30,62.72Z" style="fill: #fff"/>
          <path d="M31.27,62.34a.8.8,0,0,1,.67.23,1.51,1.51,0,0,0,1.68.28c.25-.13.37-.3.36-.41s-.19-.23-.46-.31a.26.26,0,0,1-.19-.25.27.27,0,0,1,.19-.26c.27-.07.45-.19.46-.3s-.11-.29-.36-.41a1.48,1.48,0,0,0-1.68.28.79.79,0,0,1-.67.23.88.88,0,0,1,0,.92Z" style="fill: #fff"/>
          <path d="M29.27,56.52h0a3.2,3.2,0,0,1-1.46,2.8l-.13.09a5.12,5.12,0,0,1-2.62.89,11.7,11.7,0,0,1-.91,2.61l.82.4a17.31,17.31,0,0,1,2.63,1.41A2.85,2.85,0,0,1,29,66.6a5.74,5.74,0,0,0,1.41.21h0a6.29,6.29,0,0,0,1.4-.2,2.8,2.8,0,0,1,1.37-1.84,17.07,17.07,0,0,1,2.67-1.44l.83-.4a11.72,11.72,0,0,1-.92-2.61,5.16,5.16,0,0,1-2.62-.89L33,59.34a3.22,3.22,0,0,1-1.45-2.8v0a10.41,10.41,0,0,0-1.17-.08A10,10,0,0,0,29.27,56.52ZM31,57.82a1.08,1.08,0,0,1,1,.71,1.92,1.92,0,0,1-.42,2.21.49.49,0,0,0-.12.19s.09,0,.19-.13a2,2,0,0,1,2.27-.36,1,1,0,0,1,.64.93.72.72,0,0,1-.3.51.68.68,0,0,1,.3.5,1,1,0,0,1-.64.94A2,2,0,0,1,31.59,63a.43.43,0,0,0-.2-.11s.05.08.13.17a2,2,0,0,1,.42,2.21,1.07,1.07,0,0,1-1,.7.75.75,0,0,1-.52-.29.75.75,0,0,1-.52.29h-.06a1.1,1.1,0,0,1-.92-.71A1.93,1.93,0,0,1,29.37,63a.49.49,0,0,0,.12-.19s-.09.05-.19.13a2,2,0,0,1-2.27.36,1,1,0,0,1-.64-.93.72.72,0,0,1,.3-.51.68.68,0,0,1-.3-.51,1,1,0,0,1,.64-.93,2,2,0,0,1,2.27.36.57.57,0,0,0,.2.11s-.05-.08-.13-.17A2,2,0,0,1,29,58.53a1.09,1.09,0,0,1,1-.71.79.79,0,0,1,.52.3A.81.81,0,0,1,31,57.82Z" style="fill: #fff"/>
          <path d="M30.19,58.8c-.08-.27-.2-.44-.32-.45s-.31.12-.45.4a1.45,1.45,0,0,0,.33,1.63A.74.74,0,0,1,30,61a.89.89,0,0,1,.89,0,.76.76,0,0,1,.25-.66,1.44,1.44,0,0,0,.33-1.62c-.14-.28-.33-.41-.46-.41s-.24.18-.32.45A.27.27,0,0,1,30.19,58.8Z" style="fill: #fff"/>
          <path d="M30,61.88a.43.43,0,1,0,.85,0,.43.43,0,1,0-.85,0Z" style="fill: #fff"/>
          <path d="M31.14,53.72a4.12,4.12,0,0,1-.71-1.24,4,4,0,0,1-.72,1.24,2.31,2.31,0,0,0-.3.42,3.53,3.53,0,0,0,.27.71,3.43,3.43,0,0,1,.38,1h.73a3.73,3.73,0,0,1,.4-1,3.71,3.71,0,0,0,.26-.69A2.67,2.67,0,0,0,31.14,53.72Z" style="fill: #fff"/>
          <path d="M33.17,54.8l.21,0a1.77,1.77,0,0,1,1.17.43A1.64,1.64,0,0,1,35,57a1.56,1.56,0,0,1-.48.67,2.47,2.47,0,0,0,1.12.26,3.55,3.55,0,0,0,.87-.12c.11,0,10.44-2.19,12.2-19.9H33.17Zm5.31-13.27a3.27,3.27,0,0,1,2.71-.74,2.34,2.34,0,0,1,2,2.65,3.2,3.2,0,0,1-.6,1.47,8.44,8.44,0,0,1-2.69-1.6c-.81-.66-.81-.66-1.76-1.37ZM37.14,44l.11-.33a16,16,0,0,0,5.19,1.73,1.45,1.45,0,0,0-.2,1.51,3.63,3.63,0,0,1,.41,1.4,31.15,31.15,0,0,0-3.72,1.24c-.78.33-1.14.34-.72-.45.75-1.4,1.5-1.79,1.25-1.92-.45-.31-1.54.66-1.72-.14l-.19-.56c0-.27.83-.12.18-.34-.37-.17-.29-.21-.29-.26a3.39,3.39,0,0,1,.13-.66s-.4,0-.51-.22A1.81,1.81,0,0,1,37.14,44Z" style="fill: #fff"/>
          <path d="M43,56.85a10.61,10.61,0,0,0,1.21,1.21,25.85,25.85,0,0,0,3.53-3.92,6.27,6.27,0,0,1-1.5-.93A21.3,21.3,0,0,1,43,56.85Z" style="fill: #fff"/>
          <path d="M41.14,58.3a19.06,19.06,0,0,1-3,1.63,9.47,9.47,0,0,0,.66,1.91,28.64,28.64,0,0,0,3.47-2.21A9.3,9.3,0,0,1,41.14,58.3Z" style="fill: #fff"/>
          <path d="M52.6,29.48c1.57,0,1.81-.64,1.84-1.27a4.58,4.58,0,0,0-.76-3.27,1.28,1.28,0,0,0-1-.42,1.53,1.53,0,0,0-.3,0l-.55.09a17,17,0,0,1-1.73.27,30.25,30.25,0,0,1,1,4.42A8.5,8.5,0,0,0,52.6,29.48Z" style="fill: #fff"/>
          <path d="M47.46,51.16a4.46,4.46,0,0,0,1.63.91,30.83,30.83,0,0,0,2.33-4.83,7.91,7.91,0,0,1-2-.61A27.68,27.68,0,0,1,47.46,51.16Z" style="fill: #fff"/>
          <path d="M49.87,11.84a9,9,0,0,1,1.6,3.55c.07.24.15.53.2.67a4.92,4.92,0,0,1,.45.25c3.14,1.91,2.67,4.88,2.47,6.15a2.17,2.17,0,0,0,0,.25,3.81,3.81,0,0,1,.52.44c2,2.09,1.82,4.83,1.35,7A9,9,0,0,1,57,32.64a14.59,14.59,0,0,0,1.13-9.46A16.19,16.19,0,0,0,49.87,11.84Z" style="fill: #fff"/>
          <path d="M54.27,31.67h-.1a12.28,12.28,0,0,1-1.75.14c-.33,0-.67,0-1-.05a39.67,39.67,0,0,1-.09,5.4,6.55,6.55,0,0,0,1.39.19c1,0,2-.35,2.19-3,.14-1.88-.2-2.47-.35-2.63A.31.31,0,0,0,54.27,31.67Z" style="fill: #fff"/>
          <path d="M59.68,21.42c0-.19-.11-.37-.16-.55-.12-.41-.25-.81-.4-1.21-.07-.19-.15-.39-.23-.58-.15-.38-.32-.74-.49-1.1-.08-.17-.16-.34-.25-.5-.24-.45-.48-.87-.75-1.28L57.29,16c-.3-.47-.63-.9-1-1.33L56,14.33q-.37-.44-.75-.84l-.39-.39c-.25-.24-.5-.48-.76-.7l-.38-.33c-.31-.25-.62-.49-.93-.71l-.23-.17c-.4-.27-.79-.51-1.18-.73l-.32-.16-.86-.42-.41-.17L49,9.44c-.13,0-.26-.09-.39-.12s-.56-.13-.83-.18l-.27-.05a6.43,6.43,0,0,0-1-.08h-.25a5.62,5.62,0,0,0-.73.08l-.27.07a3.49,3.49,0,0,0-.57.2l-.23.1a3.32,3.32,0,0,0-.65.46h0a3.23,3.23,0,0,0-.67,1v0a1.21,1.21,0,0,0,0,.18,2.26,2.26,0,0,0-.14.47,1.41,1.41,0,0,0,0,.2,2.3,2.3,0,0,0,0,.36v0h0c0,.08,0,.15,0,.23a1.63,1.63,0,0,0,.07.3c0,.07.07.13.1.19s.08.17.13.25l.15.16.18.19.18.12a1.64,1.64,0,0,0,.22.14l.2.07a1.69,1.69,0,0,0,.24.08l.2,0h0A1.81,1.81,0,0,0,45,14h0a1.59,1.59,0,0,0,1.39-.86,1.86,1.86,0,0,0,.23-.88A1.77,1.77,0,0,0,46,11h0l.31.12.39.17.21.1a4,4,0,0,1,.37.22,4.88,4.88,0,0,1,1.21,1.19,5.64,5.64,0,0,1,.6,1,5.54,5.54,0,0,1,.49,1.63c.2,1.72-1.59,2.94-3,3.38h0a14.5,14.5,0,0,0-6.72-5.5l-.36-.12c-.16-.05-.32-.11-.48-.15h0a9.09,9.09,0,0,0-1-.2l-.35,0a5.85,5.85,0,0,0-.59,0h-.28c-1.7.07-3.09.73-2.92,2.37h0a1.1,1.1,0,0,0,.85.93h0l.19,0,.12,0h.1a1.06,1.06,0,0,0,.33-.14.91.91,0,0,0,.4-.82,1.1,1.1,0,0,0-.48-.83h0a.73.73,0,0,0-.22-.09h-.09a1,1,0,0,0-.17,0h0a4.76,4.76,0,0,1,1.32-.21h.14l.51,0,.55,0a5.58,5.58,0,0,1,.59.1l.56.1.58.18c.19.06.37.11.55.18a6,6,0,0,1,.58.25c.18.08.37.15.54.24s.39.22.58.33.35.19.52.3l.56.41c.17.12.34.24.5.37s.36.32.54.49l.48.43.51.56.45.5c.16.2.32.43.48.64s.28.37.41.56.3.48.45.73.26.4.37.61.28.54.41.81.23.44.33.67.24.6.36.9.19.47.28.72.21.67.31,1,.16.49.23.75.17.76.25,1.15.12.48.17.74c.08.44.14.91.2,1.37,0,.22.07.43.09.66.08.69.13,1.41.16,2.15v0h0c0,.7,0,1.41,0,2.15h0a1.48,1.48,0,0,1,0,.21v0c0,.53,0,1.05-.06,1.57,0,.32,0,.63-.07.94s0,.38,0,.57h0c-1.63,19-12.73,21-12.73,21a4.13,4.13,0,0,1-.66.11h-.32l-.26,0-.18,0a3,3,0,0,1-.45-.09h0a3.17,3.17,0,0,1-.41-.17l-.12-.07L33.91,58l-.1-.08-.16-.14-.08-.07-.11-.13,0-.06a.51.51,0,0,1-.08-.13h0l.22,0h.09l.14,0a.49.49,0,0,0,.17-.06l.12-.06a.74.74,0,0,0,.13-.12l.08-.09a1.19,1.19,0,0,0,.09-.15.61.61,0,0,0,0-.12,1,1,0,0,0,0-.17.59.59,0,0,0,0-.13,1.08,1.08,0,0,0,0-.18s0-.09,0-.13A.73.73,0,0,0,34.4,56l0-.1a1.57,1.57,0,0,0-.2-.25,1.4,1.4,0,0,0-.32-.18l-.1,0a1.65,1.65,0,0,0-.32-.06h-.07l-.19,0a1.13,1.13,0,0,0-.18,0l-.07,0a1,1,0,0,0-.26.16.43.43,0,0,0-.1.09.94.94,0,0,0-.18.25.75.75,0,0,0-.07.12,1.87,1.87,0,0,0-.15.52h0a2,2,0,0,0,.25,1.15,3.18,3.18,0,0,0,.76.92c.08.06.13.13.21.19a4.91,4.91,0,0,0,2.89.91,11,11,0,0,0,1.23,3.41h0a31.46,31.46,0,0,0-3.94,2A2.2,2.2,0,0,0,32.38,67s0,.06,0,.09h0a1.86,1.86,0,0,0,.09.48,1.23,1.23,0,0,0,.23.4,1.12,1.12,0,0,0,.74.42h.33l.14,0,.1,0,.12,0,.09,0,.11-.08.07-.06.08-.1a.22.22,0,0,0,.05-.08.43.43,0,0,0,0-.12s0,0,0-.08a.41.41,0,0,0,0-.16s0,0,0-.08a.77.77,0,0,0,0-.25h0a1,1,0,0,0-.1-.21l-.06,0-.13-.12-.08,0a.44.44,0,0,0-.16-.06l-.11,0h-.08l-.19,0a.75.75,0,0,0-.58.53h0c0-.5.47-.92,1.26-1.35q.22-.13.51-.27c.36-.18.77-.37,1.23-.58l1.46-.66c.79-.37,1.64-.78,2.54-1.27a30,30,0,0,0,2.79-1.71c5.1-3.54,10.61-9.93,12.3-22.93.09-.67,6.32-5.46,4.88-15.15A18.57,18.57,0,0,0,59.68,21.42ZM48.87,23.14h0a15.8,15.8,0,0,0-1.69-3.37c.38-.13,2-1.66,2.78-1.89h0a2,2,0,0,1,.59-.08h0a1.38,1.38,0,0,1,.2,0,2,2,0,0,1,.41.07l.22.09a2.59,2.59,0,0,1,.33.17c.07,0,.14.1.21.15a2.18,2.18,0,0,1,.28.25,1.63,1.63,0,0,1,.17.2,2.7,2.7,0,0,1,.22.33,1.34,1.34,0,0,1,.12.24,2.7,2.7,0,0,1,.14.4,1.88,1.88,0,0,1,.12.77,2.28,2.28,0,0,1,0,.26,4.06,4.06,0,0,1-.12.82,1.75,1.75,0,0,1-.21.48,2.89,2.89,0,0,1-.34.39l-.14.11a2,2,0,0,1-.31.2l-.15.07a2.82,2.82,0,0,1-.51.19h0a5.05,5.05,0,0,1-.56.12l-.18,0-.4,0h-.45A6.52,6.52,0,0,1,48.87,23.14Zm.4,1.21h.24l.33,0,.3,0,.51-.06.28,0,.61-.11.59-.1.19,0h0a2.56,2.56,0,0,1,.39,0h.08L53,24l.29.07.2.08a1.82,1.82,0,0,1,.27.15l.18.14a2.5,2.5,0,0,1,.23.23,1.66,1.66,0,0,1,.16.21,2.59,2.59,0,0,1,.19.33,1.57,1.57,0,0,1,.12.26,4,4,0,0,1,.15.45c0,.1.06.19.08.31s.06.4.09.61,0,.2,0,.31a10.12,10.12,0,0,1,0,1.11,2.2,2.2,0,0,1-.12.62s0,.09,0,.13a1.37,1.37,0,0,1-.28.45h0a1.9,1.9,0,0,1-.42.31L54,29.8a2.64,2.64,0,0,1-.52.17h0a5.63,5.63,0,0,1-.61.08h-.49c-.22,0-.44,0-.66-.05l-.26,0c-.3,0-.59-.09-.88-.15h0s-.1-.73-.28-1.69c-.07-.33-.14-.69-.22-1.06s-.11-.47-.16-.7A9.84,9.84,0,0,0,49.27,24.35ZM38.61,62.62v0a7.77,7.77,0,0,1-1.06-3,18.16,18.16,0,0,0,3.79-2.1,7,7,0,0,0,1.9,2.19h0A30.56,30.56,0,0,1,38.61,62.62Zm5.61-3.79a10.55,10.55,0,0,1-2-2.08,20.24,20.24,0,0,0,3.9-4.42,6.24,6.24,0,0,0,2.51,1.54h0A26.19,26.19,0,0,1,44.22,58.83Zm5.14-6.07s0,0-.08,0a5,5,0,0,1-2.54-1.46h0a27.85,27.85,0,0,0,2.37-5.49l0,0a7.4,7.4,0,0,0,3.07.94h0A32.22,32.22,0,0,1,49.36,52.76ZM54.1,39.31v.06c0,.08,0,.18,0,.27a44.57,44.57,0,0,1-1.42,5.86h-.28l-.19,0-.26,0-.21,0-.28-.06-.21-.05-.28-.08-.2-.06-.27-.09L50.28,45,50,44.91l-.13,0-.22-.09-.07,0-.17-.09h0a52.66,52.66,0,0,0,1.11-6h0a2.16,2.16,0,0,0,.47.16l.14,0c.15,0,.31.07.47.09l.1,0,.6.06h1.22l.37,0h0A.09.09,0,0,1,54,39l0,0s0,.06,0,.09,0,0,0,0A.45.45,0,0,1,54.1,39.31Zm1.35-4.85h0c0,.31-.06.58-.1.83a2.07,2.07,0,0,0,0,.22c-.05.19-.09.37-.14.53s0,.1-.05.15a3.37,3.37,0,0,1-.24.54l-.06.1q-.12.18-.24.33l-.09.1a2.73,2.73,0,0,1-.33.28s0,0,0,0a3,3,0,0,1-.4.2l-.12,0-.34.08-.11,0a3.42,3.42,0,0,1-.46,0h-.06a5.67,5.67,0,0,1-.9-.08l-.09,0a9.13,9.13,0,0,1-1-.22h0a32,32,0,0,0,.07-6.51,9.13,9.13,0,0,0,1,.11H52l.43,0h.1l.57,0,.25,0q.38,0,.72-.09h.31l.16,0,.17.07.13.08a.93.93,0,0,1,.14.14.64.64,0,0,1,.1.13,1.05,1.05,0,0,1,.12.21,1.47,1.47,0,0,1,.07.17,2.13,2.13,0,0,1,.08.27,1.6,1.6,0,0,1,0,.21,2,2,0,0,1,0,.36l0,.23c0,.14,0,.3,0,.46a1.55,1.55,0,0,1,0,.22A7.15,7.15,0,0,1,55.45,34.46Zm.86.7h0a8,8,0,0,0-.5-4.91c.61-2.76.51-5-1.16-6.7h0A3.71,3.71,0,0,0,54,23c-.19-.36,1-3.19-1-5.34a5.58,5.58,0,0,0-1.1-.88c-.31-.18-.51-.27-.51-.27s-.05,0-.08-.07a6.64,6.64,0,0,1-.45-1.4l-.06-.21a10.81,10.81,0,0,0-.46-1.26c-.06-.13-.12-.26-.19-.39l-.19-.34a4.71,4.71,0,0,0-1.1-1.27,6.64,6.64,0,0,0-1.87-1h0a2.9,2.9,0,0,1,.43,0h.11l.32,0,.38.05.35.08.41.12.37.13a4.07,4.07,0,0,1,.44.18,3.39,3.39,0,0,1,.39.18l.46.23.41.23.46.29.41.28.48.35.41.32.47.41.41.36c.15.15.31.3.46.46l.39.4.45.52.37.44c.15.18.29.37.43.56l.34.48c.14.2.27.41.4.62s.21.34.31.51.25.45.37.69l.27.52c.12.25.22.51.33.77s.15.34.21.52.21.59.3.9l.15.46c.13.46.24.94.33,1.43C59.85,29.32,57.76,32.67,56.31,35.16Z" style="fill: #fff"/>
          <path d="M52.36,21.44A2.69,2.69,0,0,0,52,19.11a1.77,1.77,0,0,0-1.41-.73,1.61,1.61,0,0,0-.44.06,7.71,7.71,0,0,0-1.71,1.16l-.43.34a16.49,16.49,0,0,1,1.31,2.66,4,4,0,0,0,.49,0C50.31,22.62,52.08,22.54,52.36,21.44Z" style="fill: #fff"/>
          <path d="M51,39.39c-.13.91-.4,2.59-.93,4.93a10.28,10.28,0,0,0,2.11.58,43.79,43.79,0,0,0,1.26-5.31h-.43A9.48,9.48,0,0,1,51,39.39Z" style="fill: #fff"/>
          <path d="M30.85,67.36h0l-.41,0h0l-.42,0h0a3.86,3.86,0,0,1-.5,1.45,3.85,3.85,0,0,0-.31.83,4.67,4.67,0,0,0,.37.5,4.67,4.67,0,0,1,.86,1.53,4.68,4.68,0,0,1,.87-1.53,3.92,3.92,0,0,0,.36-.5,3.85,3.85,0,0,0-.31-.83A4,4,0,0,1,30.85,67.36Z" style="fill: #fff"/>
          <path d="M27.3,65.24a30.75,30.75,0,0,0-3.94-2h0a11,11,0,0,0,1.23-3.41,4.88,4.88,0,0,0,2.89-.91c.08-.06.14-.13.21-.19a3.4,3.4,0,0,0,.77-.92,2.08,2.08,0,0,0,.24-1.15,1.86,1.86,0,0,0-.14-.53L28.49,56a1.26,1.26,0,0,0-.19-.25l-.09-.09a1.07,1.07,0,0,0-.27-.16l-.07,0a1.13,1.13,0,0,0-.18,0,1.08,1.08,0,0,0-.19,0h-.07a1.65,1.65,0,0,0-.32.06l-.1,0a1.33,1.33,0,0,0-.31.18.92.92,0,0,0-.2.25.42.42,0,0,0,0,.1.73.73,0,0,0-.07.19.57.57,0,0,0,0,.13.55.55,0,0,0,0,.18.59.59,0,0,0,0,.13,1,1,0,0,0,0,.17.61.61,0,0,0,.05.12l.09.15.09.1a1.31,1.31,0,0,0,.12.11l.12.06a.49.49,0,0,0,.17.06l.15,0h.08l.23,0h0l-.08.13-.05.06-.11.13-.08.07a1.14,1.14,0,0,1-.16.14L27,58l-.23.14-.11.07a4.08,4.08,0,0,1-.42.17h-.05a3,3,0,0,1-.45.09l-.18,0-.26,0h-.32a4.32,4.32,0,0,1-.66-.11s-11.09-2-12.73-21c0-.19,0-.38,0-.57s-.05-.62-.07-.94c0-.52,0-1-.06-1.57,0-.08,0-.16,0-.24h0c0-.74,0-1.45,0-2.15v0c0-.74.08-1.46.16-2.15,0-.24.07-.47.1-.71.06-.44.12-.89.19-1.32s.13-.55.19-.82.14-.73.24-1.07.16-.55.25-.83.18-.63.28-.93.21-.52.31-.78.21-.57.33-.84.24-.48.36-.72.25-.52.38-.76.27-.44.4-.66.27-.46.42-.68.3-.4.45-.6.29-.41.44-.6l.48-.53c.16-.17.32-.36.49-.53s.33-.3.5-.46l.51-.46A6.42,6.42,0,0,1,18.4,16a6,6,0,0,1,.53-.39c.18-.12.36-.22.54-.32s.37-.23.56-.32l.55-.25.57-.24c.18-.07.37-.12.56-.18s.38-.13.58-.18l.55-.1c.2,0,.39-.08.59-.1l.55,0,.52,0h.13A4.71,4.71,0,0,1,26,14.1h0l-.16,0h-.09a.56.56,0,0,0-.22.09h0a1.1,1.1,0,0,0-.48.83.9.9,0,0,0,.41.82,1,1,0,0,0,.33.14h.1l.12,0,.19,0h0A1.11,1.11,0,0,0,27,15.1h0c.17-1.64-1.23-2.3-2.93-2.37h-.28c-.19,0-.39,0-.59,0l-.34,0a9.26,9.26,0,0,0-1.05.2h0c-.17,0-.32.1-.48.15s-.25.07-.37.12a14.5,14.5,0,0,0-6.72,5.5h0l-.54-.2c-1.27-.56-2.62-1.67-2.44-3.18a5.23,5.23,0,0,1,.48-1.63,6.31,6.31,0,0,1,.6-1,5.25,5.25,0,0,1,1.21-1.19l.27-.16a9.33,9.33,0,0,1,.86-.39l.16-.06h0a1.77,1.77,0,0,0-.57,1.26,1.89,1.89,0,0,0,.24.88,1.58,1.58,0,0,0,1.38.86h0a1.81,1.81,0,0,0,.23,0h0l.21,0,.24-.08.19-.07c.08,0,.15-.1.22-.14h0l.18-.12h0a1.71,1.71,0,0,0,.18-.2h0l.15-.15c0-.08.09-.17.13-.25a.87.87,0,0,0,.1-.19,1.73,1.73,0,0,0,.07-.31,1.42,1.42,0,0,0,.05-.22h0a1.73,1.73,0,0,0,0-.39.67.67,0,0,0,0-.2,2.49,2.49,0,0,0-.19-.65v0a3,3,0,0,0-.29-.53A3.16,3.16,0,0,0,17,9.94h0a3,3,0,0,0-.65-.46l-.23-.1a3.73,3.73,0,0,0-.56-.2l-.28-.07A5.47,5.47,0,0,0,14.53,9h-.25a6.56,6.56,0,0,0-1,.08L13,9.14a6.37,6.37,0,0,0-.82.18l-.39.12q-.39.12-.78.27l-.4.17q-.44.19-.87.42l-.31.16a13.44,13.44,0,0,0-1.18.73l-.23.17c-.31.22-.63.46-.94.71l-.37.33c-.26.22-.52.46-.77.7l-.38.39q-.39.4-.75.84l-.31.36c-.34.43-.66.86-1,1.33a1.51,1.51,0,0,0-.1.17c-.27.41-.52.84-.76,1.29l-.25.5c-.17.36-.34.72-.49,1.1-.08.19-.16.39-.23.59-.15.39-.27.79-.39,1.19-.06.19-.12.37-.17.56A18.55,18.55,0,0,0,.8,23.28h0a19.43,19.43,0,0,0-.21,3.41c.22,7.42,5,11.15,5.08,11.74A39.37,39.37,0,0,0,9.73,52a28.62,28.62,0,0,0,1.67,2.75A25.15,25.15,0,0,0,15.09,59,25.69,25.69,0,0,0,18,61.36c.64.44,1.27.84,1.88,1.2l.91.51c.6.33,1.18.62,1.73.89l.81.38,1.25.56.42.2.84.39q.56.27,1,.51a5.85,5.85,0,0,1,.52.37,1.13,1.13,0,0,1,.47.83h0a.61.61,0,0,0-.11-.22.75.75,0,0,0-.47-.31l-.19,0h-.08l-.11,0a.52.52,0,0,0-.16.06l-.08,0-.13.12-.05,0a.66.66,0,0,0-.11.2h0a1.09,1.09,0,0,0,0,.24s0,.06,0,.09a.77.77,0,0,0,0,.15l0,.08s0,.09.05.12l.06.08a.39.39,0,0,0,.08.1l.07.06a.39.39,0,0,0,.1.08l.09,0,.12,0,.11,0,.13,0h.33a1.17,1.17,0,0,0,.75-.42,1.41,1.41,0,0,0,.22-.4,1.28,1.28,0,0,0,.09-.48h0V67A2.19,2.19,0,0,0,27.3,65.24Zm-17-35.42h0c-.28.06-.58.11-.87.15L9.1,30c-.22,0-.44,0-.66.05H8a5.13,5.13,0,0,1-.6-.08h0a2.78,2.78,0,0,1-.51-.17l-.12-.06a1.83,1.83,0,0,1-.42-.31h0A1.81,1.81,0,0,1,6,29a1.12,1.12,0,0,0,0-.13,2.2,2.2,0,0,1-.12-.62h0a10,10,0,0,1,0-1.11,3,3,0,0,1,0-.31c0-.22.05-.43.09-.61s.06-.21.09-.32a2.83,2.83,0,0,1,.14-.44,1.58,1.58,0,0,1,.13-.26,2.57,2.57,0,0,1,.18-.33c.05-.08.11-.14.16-.21s.15-.16.23-.23a1.33,1.33,0,0,1,.19-.14,1.35,1.35,0,0,1,.26-.15l.2-.08L7.85,24l.22,0h.09l.39,0h0l.16,0,.61.11.61.11.29,0,.5.06.31,0,.32,0h.24A25.49,25.49,0,0,0,10.25,29.82Zm3.43-10A16.3,16.3,0,0,0,12,23.14h0a6.35,6.35,0,0,1-.79.06h-.45l-.41,0-.17,0A5.23,5.23,0,0,1,9.6,23h0a2.82,2.82,0,0,1-.51-.19L9,22.76a2.14,2.14,0,0,1-.32-.2l-.13-.11a2.06,2.06,0,0,1-.25-.26l-.09-.13a1.76,1.76,0,0,1-.22-.48,4,4,0,0,1-.11-.82,2.26,2.26,0,0,1,0-.26,4,4,0,0,1,0-.5A1.34,1.34,0,0,1,8,19.73a2.7,2.7,0,0,1,.14-.4,2,2,0,0,1,.13-.25,2.2,2.2,0,0,1,.21-.32l.18-.2a2.11,2.11,0,0,1,.27-.25c.07,0,.14-.11.21-.15A2.16,2.16,0,0,1,9.44,18a1.45,1.45,0,0,1,.22-.09,1.85,1.85,0,0,1,.41-.07l.19,0h0a2.06,2.06,0,0,1,.6.08h0C11.73,18.11,13.3,19.64,13.68,19.77ZM5.05,30.25a8.71,8.71,0,0,0-.69,3.65,5.11,5.11,0,0,0,.2,1.26h0A15.7,15.7,0,0,1,1.82,26.3a19.35,19.35,0,0,1,.32-3.22h0c.09-.48.2-1,.32-1.42,0-.16.11-.31.15-.47s.19-.6.3-.89.15-.35.22-.53.21-.51.32-.76l.28-.53c.12-.23.23-.46.36-.68s.21-.34.32-.51.25-.42.39-.61.23-.33.35-.49l.42-.56L6,15.17c.15-.17.29-.34.44-.5s.27-.28.4-.42l.45-.44.42-.38c.15-.13.3-.27.46-.39l.42-.33c.16-.12.31-.24.46-.34l.43-.29.45-.28.42-.24.44-.23.41-.19.43-.17.38-.13.4-.12.36-.08.37-.05.32,0h.12a3,3,0,0,1,.43,0h0a6.62,6.62,0,0,0-1.88,1c-2,1.59-2.09,4.77-2.53,4.94a5.35,5.35,0,0,0-.5.27A4.53,4.53,0,0,0,6.71,21c0,.88.21,1.59.2,1.89,0,.05,0,.09,0,.11a4.12,4.12,0,0,0-.68.53,5.36,5.36,0,0,0-1.5,3.82,12.23,12.23,0,0,0,.34,2.88ZM6.7,37.54a2.07,2.07,0,0,1-.32-.28l-.1-.1a2.75,2.75,0,0,1-.23-.33.86.86,0,0,0-.07-.1,3.37,3.37,0,0,1-.24-.54s0-.1,0-.15-.1-.34-.14-.53a1.43,1.43,0,0,1,0-.22,6.43,6.43,0,0,1-.11-.83h0c0-.27,0-.53,0-.78,0-.08,0-.15,0-.23s0-.31,0-.45l0-.24c0-.12,0-.24,0-.35a1.6,1.6,0,0,1,0-.21c0-.09.05-.19.08-.27a1,1,0,0,1,.08-.18,1.28,1.28,0,0,1,.11-.2,1.47,1.47,0,0,1,.1-.13A1.85,1.85,0,0,1,6,31.28l.13-.08.18-.07.15,0H6.8c.24,0,.47.07.72.09l.25,0,.57,0h.1l.43,0h.29a9.44,9.44,0,0,0,1-.11A17.82,17.82,0,0,0,10,33.55c0,1,.05,2.35.18,4.06h0a9.13,9.13,0,0,1-1,.22l-.09,0a5.67,5.67,0,0,1-.9.08H8.15a3.42,3.42,0,0,1-.46,0l-.11,0-.34-.08-.12,0a2.87,2.87,0,0,1-.39-.2Zm1.63,8h-.1a43,43,0,0,1-1.42-5.86c0-.09,0-.19,0-.27v-.06a.92.92,0,0,1,0-.16s0,0,0,0l0-.09,0,0s0,0,0,0h.05l.37,0H8.54l.59-.06.1,0c.16,0,.32-.06.47-.09l.14,0a1.85,1.85,0,0,0,.47-.16h0a55.41,55.41,0,0,0,1.11,6h0l-.17.09-.06,0-.23.09-.12,0-.26.09-.18.06-.27.09-.2.06-.28.08-.21.05-.28.06-.21,0-.25,0-.19,0Zm3.18,7.26a31,31,0,0,1-2.86-6,7.36,7.36,0,0,0,3.06-.94s0,0,0,0a27.92,27.92,0,0,0,2.38,5.49h0a5.1,5.1,0,0,1-2.55,1.46A.15.15,0,0,0,11.51,52.76Zm.73,1.11h0a6.24,6.24,0,0,0,2.51-1.54,20,20,0,0,0,3.9,4.42,10.52,10.52,0,0,1-2,2.08A26.16,26.16,0,0,1,12.24,53.87Zm10,8.73v0a31,31,0,0,1-4.61-3h0a7,7,0,0,0,1.9-2.19,18.16,18.16,0,0,0,3.79,2.1A7.83,7.83,0,0,1,22.27,62.6Z" style="fill: #fff"/>
          <path d="M33.17,16h0a8.08,8.08,0,0,1-2.73-1.55,8.29,8.29,0,0,1-2.75,1.56v16.4H12c0,.57,0,1.09,0,1.59v.23c0,.53,0,1,.06,1.55,0,.26,0,.5.05.74l0,.2c0,.19,0,.38,0,.56v0c0,.2,0,.38.06.57,2.75,0,15.5,0,15.5,0V54.8A1.71,1.71,0,0,1,29.12,56l.35-.05a2.94,2.94,0,0,0-.3-.78,4,4,0,0,1-.34-.91c0-.2,0-.38.44-.86a4.56,4.56,0,0,0,.88-1.93l0-.09h.52l0,.09a4.46,4.46,0,0,0,.87,1.92c.4.48.47.68.45.83a4.23,4.23,0,0,1-.33.93h0a3,3,0,0,0-.3.8l.35.06a1.72,1.72,0,0,1,1.43-1.16h0V37.94H48.68l.06-.57v0c0-.18,0-.37,0-.56l0-.2c0-.24,0-.48.05-.74,0-.5,0-1,.06-1.55V34c0-.48,0-1,0-1.57H33.17Z" style="fill: url(#Sfumatura_senza_nome_34)"/>
          <path d="M21.83,20.9a3.31,3.31,0,0,0-2.71.75l-.31.41c.94.71.94.71,1.75,1.36A8.64,8.64,0,0,0,23.25,25a3.2,3.2,0,0,0,.6-1.47A2.34,2.34,0,0,0,21.83,20.9Z"/>
          <path d="M23.08,25.53a16,16,0,0,1-5.19-1.73l-.11.33a1.72,1.72,0,0,0-.08,1c.1.22.51.22.51.22a3.85,3.85,0,0,0-.14.66s-.07.09.3.26c.64.22-.23.07-.19.34l.19.56c.19.8,1.27-.17,1.73.14.25.13-.51.52-1.26,1.92-.42.79-.06.78.73.45a30,30,0,0,1,3.72-1.24A3.71,3.71,0,0,0,22.88,27,1.41,1.41,0,0,1,23.08,25.53Z"/>
          <path d="M42.62,25a3.2,3.2,0,0,0,.6-1.47,2.35,2.35,0,0,0-2-2.66,3.31,3.31,0,0,0-2.71.75l-.31.41c.95.71.95.71,1.76,1.36A8.52,8.52,0,0,0,42.62,25Z"/>
          <path d="M37.57,25.35a3.39,3.39,0,0,0-.13.66s-.08.09.29.26c.65.22-.22.07-.18.34l.19.56c.18.8,1.27-.17,1.72.14.25.13-.5.52-1.25,1.92-.42.79-.06.78.72.45a31.15,31.15,0,0,1,3.72-1.24A3.71,3.71,0,0,0,42.24,27a1.43,1.43,0,0,1,.2-1.5,16,16,0,0,1-5.19-1.73l-.11.33a1.81,1.81,0,0,0-.08,1C37.17,25.35,37.57,25.35,37.57,25.35Z"/>
          <path d="M21.83,40.79a3.27,3.27,0,0,0-2.71.74l-.31.41c.94.71.94.71,1.75,1.37a8.55,8.55,0,0,0,2.69,1.6,3.2,3.2,0,0,0,.6-1.47A2.33,2.33,0,0,0,21.83,40.79Z"/>
          <path d="M23.08,45.41a16,16,0,0,1-5.19-1.73l-.11.33a1.72,1.72,0,0,0-.08,1c.1.23.51.22.51.22a3.85,3.85,0,0,0-.14.66s-.07.09.3.26c.64.22-.23.07-.19.34l.19.56c.19.8,1.27-.17,1.73.14.25.13-.51.52-1.26,1.92-.42.79-.06.78.73.45a30,30,0,0,1,3.72-1.24,3.63,3.63,0,0,0-.41-1.4A1.43,1.43,0,0,1,23.08,45.41Z"/>
          <path d="M42.62,44.91a3.2,3.2,0,0,0,.6-1.47,2.34,2.34,0,0,0-2-2.65,3.27,3.27,0,0,0-2.71.74l-.31.41c.95.71.95.71,1.76,1.37A8.44,8.44,0,0,0,42.62,44.91Z"/>
          <path d="M37.57,45.23a3.39,3.39,0,0,0-.13.66s-.08.09.29.26c.65.22-.22.07-.18.34l.19.56c.18.8,1.27-.17,1.72.14.25.13-.5.52-1.25,1.92-.42.79-.06.78.72.45a31.15,31.15,0,0,1,3.72-1.24,3.63,3.63,0,0,0-.41-1.4,1.45,1.45,0,0,1,.2-1.51,16,16,0,0,1-5.19-1.73l-.11.33a1.81,1.81,0,0,0-.08,1C37.17,45.24,37.57,45.23,37.57,45.23Z"/>
          <g>
            <path d="M31.39,62.85a.43.43,0,0,1,.2.11,2,2,0,0,0,2.27.36,1,1,0,0,0,.64-.94.68.68,0,0,0-.3-.5.72.72,0,0,0,.3-.51,1,1,0,0,0-.64-.93,2,2,0,0,0-2.27.36c-.1.08-.17.1-.19.13a.49.49,0,0,1,.12-.19,1.92,1.92,0,0,0,.42-2.21,1.08,1.08,0,0,0-1-.71.81.81,0,0,0-.52.3.79.79,0,0,0-.52-.3,1.09,1.09,0,0,0-1,.71,2,2,0,0,0,.42,2.21c.08.09.11.15.13.17a.57.57,0,0,1-.2-.11A2,2,0,0,0,27,60.44a1,1,0,0,0-.64.93.68.68,0,0,0,.3.51.72.72,0,0,0-.3.51,1,1,0,0,0,.64.93A2,2,0,0,0,29.3,63c.1-.08.17-.1.19-.13a.49.49,0,0,1-.12.19A1.93,1.93,0,0,0,29,65.23a1.1,1.1,0,0,0,.92.71h.06a.75.75,0,0,0,.52-.29.75.75,0,0,0,.52.29,1.07,1.07,0,0,0,1-.7A2,2,0,0,0,31.52,63C31.44,62.93,31.41,62.87,31.39,62.85Zm.55-1.66a1.48,1.48,0,0,1,1.68-.28c.25.12.37.3.36.41s-.19.23-.46.3a.27.27,0,0,0-.19.26.26.26,0,0,0,.19.25c.27.08.45.19.46.31s-.11.28-.36.41a1.51,1.51,0,0,1-1.68-.28.8.8,0,0,0-.67-.23.88.88,0,0,0,0-.92A.79.79,0,0,0,31.94,61.19Zm-2.52-2.44c.14-.28.35-.42.45-.4s.24.18.32.45a.27.27,0,0,0,.5,0c.08-.27.2-.44.32-.45s.32.13.46.41a1.44,1.44,0,0,1-.33,1.62.76.76,0,0,0-.25.66A.89.89,0,0,0,30,61a.74.74,0,0,0-.25-.66A1.45,1.45,0,0,1,29.42,58.75Zm1.45,3.13a.43.43,0,1,1-.85,0,.43.43,0,1,1,.85,0ZM29,62.57a1.5,1.5,0,0,1-1.68.28c-.25-.13-.37-.3-.36-.41s.19-.23.46-.3a.28.28,0,0,0,.19-.26.26.26,0,0,0-.19-.25c-.27-.08-.45-.19-.46-.31s.11-.28.36-.41a1.51,1.51,0,0,1,1.68.28.8.8,0,0,0,.67.23.88.88,0,0,0,0,.92l-.11,0A.84.84,0,0,0,29,62.57ZM31.47,65c-.14.29-.34.43-.45.41s-.24-.18-.32-.45a.27.27,0,0,0-.5,0c-.08.27-.2.44-.32.45s-.32-.13-.45-.41a1.42,1.42,0,0,1,.32-1.62.76.76,0,0,0,.25-.66.93.93,0,0,0,.44.11.94.94,0,0,0,.45-.11.74.74,0,0,0,.25.66A1.44,1.44,0,0,1,31.47,65Z"/>
            <path d="M41.33,57.46a18.16,18.16,0,0,1-3.79,2.1,7.77,7.77,0,0,0,1.06,3v0a30.56,30.56,0,0,0,4.62-3h0A7,7,0,0,1,41.33,57.46Zm-2.5,4.38a9.47,9.47,0,0,1-.66-1.91,19.06,19.06,0,0,0,3-1.63,9.3,9.3,0,0,0,1.16,1.33A28.64,28.64,0,0,1,38.83,61.84Z"/>
            <path d="M46.13,52.33a20.24,20.24,0,0,1-3.9,4.42,10.55,10.55,0,0,0,2,2.08,26.19,26.19,0,0,0,4.42-5h0A6.24,6.24,0,0,1,46.13,52.33Zm-1.92,5.73A10.61,10.61,0,0,1,43,56.85a21.3,21.3,0,0,0,3.24-3.64,6.27,6.27,0,0,0,1.5.93A25.85,25.85,0,0,1,44.21,58.06Z"/>
            <path d="M50.11,27.07c.08.37.15.73.22,1.06.18,1,.28,1.69.28,1.69h0c.29.06.58.11.88.15l.26,0c.22,0,.44,0,.66.05h.49a5.63,5.63,0,0,0,.61-.08h0A2.64,2.64,0,0,0,54,29.8l.11-.06a1.9,1.9,0,0,0,.42-.31h0a1.37,1.37,0,0,0,.28-.45s0-.08,0-.13a2.2,2.2,0,0,0,.12-.62,10.12,10.12,0,0,0,0-1.11c0-.11,0-.2,0-.31s0-.43-.09-.61-.06-.21-.08-.31a4,4,0,0,0-.15-.45,1.57,1.57,0,0,0-.12-.26,2.59,2.59,0,0,0-.19-.33,1.66,1.66,0,0,0-.16-.21,2.5,2.5,0,0,0-.23-.23l-.18-.14a1.82,1.82,0,0,0-.27-.15L53.3,24,53,24l-.22,0h-.08a2.56,2.56,0,0,0-.39,0h0l-.19,0-.59.1-.61.11-.28,0-.51.06-.3,0-.33,0h-.24a9.84,9.84,0,0,1,.68,2C50,26.6,50.06,26.83,50.11,27.07Zm1.75-2.43.55-.09a1.53,1.53,0,0,1,.3,0,1.28,1.28,0,0,1,1,.42,4.58,4.58,0,0,1,.76,3.27c0,.63-.27,1.27-1.84,1.27a8.5,8.5,0,0,1-1.47-.15,30.25,30.25,0,0,0-1-4.42A17,17,0,0,0,51.86,24.64Z"/>
            <path d="M49.78,23.2h.34l.4,0,.18,0a5.05,5.05,0,0,0,.56-.12h0a2.82,2.82,0,0,0,.51-.19l.15-.07a2,2,0,0,0,.31-.2l.14-.11a2.89,2.89,0,0,0,.34-.39,1.75,1.75,0,0,0,.21-.48,4.06,4.06,0,0,0,.12-.82,2.28,2.28,0,0,0,0-.26,1.88,1.88,0,0,0-.12-.77,2.7,2.7,0,0,0-.14-.4,1.34,1.34,0,0,0-.12-.24,2.7,2.7,0,0,0-.22-.33,1.63,1.63,0,0,0-.17-.2,2.18,2.18,0,0,0-.28-.25c-.07,0-.14-.11-.21-.15a2.59,2.59,0,0,0-.33-.17l-.22-.09a2,2,0,0,0-.41-.07,1.38,1.38,0,0,0-.2,0h0a2,2,0,0,0-.59.08h0c-.83.23-2.4,1.76-2.78,1.89a15.8,15.8,0,0,1,1.69,3.37h0a6.52,6.52,0,0,0,.8.06ZM48,19.94l.43-.34a7.71,7.71,0,0,1,1.71-1.16,1.61,1.61,0,0,1,.44-.06,1.77,1.77,0,0,1,1.41.73,2.69,2.69,0,0,1,.39,2.33c-.28,1.1-2,1.18-2.58,1.18a4,4,0,0,1-.49,0A16.49,16.49,0,0,0,48,19.94Z"/>
            <path d="M54.07,39l0,0A.09.09,0,0,0,54,39h0l-.37,0H52.33l-.6-.06-.1,0c-.16,0-.32-.06-.47-.09l-.14,0a2.16,2.16,0,0,1-.47-.16h0a52.66,52.66,0,0,1-1.11,6h0l.17.09.07,0,.22.09.13,0,.25.09.18.06.27.09.2.06.28.08.21.05.28.06.21,0,.26,0,.19,0h.28a44.57,44.57,0,0,0,1.42-5.86c0-.09,0-.19,0-.27v-.06a.45.45,0,0,0,0-.16s0,0,0,0S54.09,39,54.07,39ZM52.22,44.9a10.28,10.28,0,0,1-2.11-.58c.53-2.34.8-4,.93-4.93a9.48,9.48,0,0,0,2,.21h.43A43.79,43.79,0,0,1,52.22,44.9Z"/>
            <path d="M49.15,45.82l0,0a27.85,27.85,0,0,1-2.37,5.49h0a5,5,0,0,0,2.54,1.46s0,0,.08,0a32.22,32.22,0,0,0,2.86-6h0A7.4,7.4,0,0,1,49.15,45.82Zm-.06,6.25a4.46,4.46,0,0,1-1.63-.91,27.68,27.68,0,0,0,2-4.53,7.91,7.91,0,0,0,2,.61A30.83,30.83,0,0,1,49.09,52.07Z"/>
            <path d="M55.47,33l0-.23a2,2,0,0,0,0-.36,1.6,1.6,0,0,0,0-.21,2.13,2.13,0,0,0-.08-.27,1.47,1.47,0,0,0-.07-.17,1.05,1.05,0,0,0-.12-.21.64.64,0,0,0-.1-.13.93.93,0,0,0-.14-.14l-.13-.08-.17-.07-.16,0h-.31q-.35.06-.72.09l-.25,0-.57,0h-.1l-.43,0h-.28a9.13,9.13,0,0,1-1-.11,32,32,0,0,1-.07,6.51h0a9.13,9.13,0,0,0,1,.22l.09,0a5.67,5.67,0,0,0,.9.08h.06a3.42,3.42,0,0,0,.46,0l.11,0,.34-.08.12,0a3,3,0,0,0,.4-.2s0,0,0,0a2.73,2.73,0,0,0,.33-.28l.09-.1q.12-.15.24-.33l.06-.1a3.37,3.37,0,0,0,.24-.54s0-.1.05-.15.09-.34.14-.53a2.07,2.07,0,0,1,0-.22c0-.25.08-.52.1-.83h0a7.15,7.15,0,0,0,0-.78,1.55,1.55,0,0,0,0-.22C55.48,33.3,55.48,33.14,55.47,33Zm-.59,1.41c-.2,2.6-1.22,3-2.19,3a6.55,6.55,0,0,1-1.39-.19,39.67,39.67,0,0,0,.09-5.4c.36,0,.7.05,1,.05a12.28,12.28,0,0,0,1.75-.14h.1a.31.31,0,0,1,.26.11C54.68,31.94,55,32.53,54.88,34.41Z"/>
            <path d="M58.4,21.65l-.15-.46q-.14-.47-.3-.9c-.06-.18-.14-.35-.21-.52s-.21-.52-.33-.77l-.27-.52c-.12-.24-.24-.47-.37-.69s-.2-.34-.31-.51-.26-.42-.4-.62l-.34-.48c-.14-.19-.28-.38-.43-.56l-.37-.44-.45-.52-.39-.4c-.15-.16-.31-.31-.46-.46l-.41-.36L52.74,13l-.41-.32-.48-.35-.41-.28L51,11.79l-.41-.23-.46-.23a3.39,3.39,0,0,0-.39-.18,4.07,4.07,0,0,0-.44-.18l-.37-.13-.41-.12-.35-.08-.38-.05-.32,0h-.11a2.9,2.9,0,0,0-.43,0h0a6.64,6.64,0,0,1,1.87,1,4.71,4.71,0,0,1,1.1,1.27l.19.34c.07.13.13.26.19.39a10.81,10.81,0,0,1,.46,1.26l.06.21a6.64,6.64,0,0,0,.45,1.4s.05.06.08.07.2.09.51.27a5.58,5.58,0,0,1,1.1.88c2.08,2.15.86,5,1,5.34a3.71,3.71,0,0,1,.68.53h0c1.67,1.71,1.77,3.94,1.16,6.7a8,8,0,0,1,.5,4.91h0c1.45-2.49,3.54-5.84,2.42-12.08C58.64,22.59,58.53,22.11,58.4,21.65ZM57,32.64a9,9,0,0,0-.61-2.45c.47-2.21.7-5-1.35-7a3.81,3.81,0,0,0-.52-.44,2.17,2.17,0,0,1,0-.25c.2-1.27.67-4.24-2.47-6.15a4.92,4.92,0,0,0-.45-.25c-.05-.14-.13-.43-.2-.67a9,9,0,0,0-1.6-3.55,16.19,16.19,0,0,1,8.29,11.34A14.59,14.59,0,0,1,57,32.64Z"/>
            <path d="M60.64,23.2A18.61,18.61,0,0,0,55,12.35c-2.6-2.42-5.8-3.92-8.36-3.92a4.45,4.45,0,0,0-2.87.92h-.13A6.11,6.11,0,0,1,41.33,9a1.23,1.23,0,0,1-.23-1.28l.44-1.16-1.17.4a2.44,2.44,0,0,0-1.56,2.45,3.18,3.18,0,0,1-1.16-2.45v0a1.29,1.29,0,0,0,.77.25,1.53,1.53,0,0,0,1.33-.83,1.58,1.58,0,0,0-.22-1.7,2.06,2.06,0,0,0-1.67-.8A2.36,2.36,0,0,0,35.8,5.17a4.72,4.72,0,0,0-.18,3.06A5,5,0,0,0,34.32,8,4.58,4.58,0,0,0,33.09,5.6a1.07,1.07,0,0,1-.29-.95,2.5,2.5,0,0,0-.84-2,6.59,6.59,0,0,1-.74-1A3.46,3.46,0,0,1,30.87.37.43.43,0,0,0,30.44,0,.44.44,0,0,0,30,.37a2.88,2.88,0,0,1-.37,1.33,6.55,6.55,0,0,1-.71.94,2.52,2.52,0,0,0-.85,2,1,1,0,0,1-.3.94A4.57,4.57,0,0,0,26.56,8a5.63,5.63,0,0,0-1.32.28,4.79,4.79,0,0,0-.17-3.06A2.38,2.38,0,0,0,23,3.81a2.06,2.06,0,0,0-1.67.8,1.6,1.6,0,0,0-.22,1.7,1.53,1.53,0,0,0,1.34.83,1.31,1.31,0,0,0,.77-.25v0a3.11,3.11,0,0,1-1.16,2.45A2.45,2.45,0,0,0,20.5,6.92L19.3,6.5l.46,1.19A1.21,1.21,0,0,1,19.53,9a6.07,6.07,0,0,1-2.26.38h-.12a4.48,4.48,0,0,0-2.87-.92C9.33,8.43,1.59,14.05.22,23.2A17.65,17.65,0,0,0,4.64,38a5.84,5.84,0,0,1,.46.56C7.65,57.93,18.81,63,24.18,65.38c.72.32,1.44.65,2,1a1.33,1.33,0,0,0-.47.67,1.45,1.45,0,0,0,.23,1.3,1.65,1.65,0,0,0,1.34.63l.21,0a1.81,1.81,0,0,0,1.57-1.7l.36.07A3.3,3.3,0,0,1,29,68.54a4.27,4.27,0,0,0-.38,1c0,.17.05.38.51.92a5.29,5.29,0,0,1,1,2.26l0,.08h.52l0-.08a5.17,5.17,0,0,1,1-2.26c.45-.54.53-.75.5-.92a4.61,4.61,0,0,0-.37-1,3.31,3.31,0,0,1-.43-1.26l.37-.07a1.8,1.8,0,0,0,1.56,1.7l.21,0a1.65,1.65,0,0,0,1.34-.63,1.45,1.45,0,0,0,.23-1.3,1.22,1.22,0,0,0-.47-.67c.56-.3,1.29-.63,2-1,5.37-2.42,16.53-7.45,19.08-26.8.07-.11.28-.35.46-.56A17.65,17.65,0,0,0,60.64,23.2ZM34.42,8.55a1.9,1.9,0,0,1,.25,0l.19,0,.35.09.2.06.3.11L35.9,9l.26.12.17.08.23.12a.47.47,0,0,1,.12.07l.2.11.08,0,.16.1h0A.81.81,0,0,1,37,9.46l-.08-.08-.24-.3a2.3,2.3,0,0,1-.42-.81,3.81,3.81,0,0,1-.12-.51,4,4,0,0,1,.19-2.31A2.27,2.27,0,0,1,36.65,5a1.36,1.36,0,0,1,.12-.12L37,4.64l.17-.08a1.22,1.22,0,0,1,.24-.1l.18,0,.23,0h0l.19,0,.15,0,.21.07.14,0a1.18,1.18,0,0,1,.19.11l.1.06a1.25,1.25,0,0,1,.23.23,1.5,1.5,0,0,1,.19.38l0,.11a.71.71,0,0,1,0,.25v.09a.78.78,0,0,1-.09.27v0A.87.87,0,0,1,39,6.3L39,6.36a.78.78,0,0,1-.18.11l-.08,0a.59.59,0,0,1-.23,0h0a.58.58,0,0,1-.19,0l-.1,0a.64.64,0,0,1-.25-.19,1.17,1.17,0,0,0-.16-.15h0a.36.36,0,0,0-.18-.07h0l-.07,0-.05,0a.46.46,0,0,1-.07.07l0,.06a.52.52,0,0,0-.07.15l0,.08a2.29,2.29,0,0,0-.08.35A3.8,3.8,0,0,0,38.71,10L40,11a1.53,1.53,0,0,1-.39-.7c0-.08,0-.14-.06-.19A2.12,2.12,0,0,1,39.81,8a2,2,0,0,1,.75-.55,1.76,1.76,0,0,0-.1.42,1.8,1.8,0,0,0,.07.9A1.56,1.56,0,0,0,41,9.4a4.53,4.53,0,0,0,2.22.5,3.55,3.55,0,0,0-.48.79,2.83,2.83,0,0,0,.14,2.71A2.59,2.59,0,0,0,45,14.54H45a2.13,2.13,0,0,0,1.88-1.17,2.4,2.4,0,0,0,.3-1.18,5.1,5.1,0,0,1,1.86,3.27c.14,1.2-1.08,2.14-2.15,2.59a15.9,15.9,0,0,0-6.78-5.33c-.32-.12-.61-.21-.89-.29s-.38-.06-.57-.1-.45-.1-.68-.12h0l-.13-.1-.44-.31-.34-.23-.42-.29-.31-.21L36,10.82l-.28-.17-.32-.2-.23-.14-.26-.14-.18-.09L34.5,10l-.1,0-.11,0h0c-.15,0-.21.09-.22.19s.05.35,0,.58a.91.91,0,0,1-.53.7,1.17,1.17,0,0,1-.26.1l-.09,0-.19,0h-.09a1.26,1.26,0,0,1-.27,0l-.07,0a1.4,1.4,0,0,1-.3-.15l-.06-.05a1,1,0,0,1-.2-.2L32,11a1.23,1.23,0,0,1-.15-.35h0a1.12,1.12,0,0,1,0-.21,1.62,1.62,0,0,1,.15-.8,1.52,1.52,0,0,1,.39-.54,2.13,2.13,0,0,1,.73-.42,2.8,2.8,0,0,1,.5-.12h.17l.25,0h.16ZM28.17,6a1.58,1.58,0,0,0,.48-1.4A2,2,0,0,1,29.34,3a6.66,6.66,0,0,0,.77-1,2.16,2.16,0,0,0,.33-.81,2.17,2.17,0,0,0,.31.79,7.25,7.25,0,0,0,.79,1,2,2,0,0,1,.68,1.59A1.61,1.61,0,0,0,32.69,6a3.84,3.84,0,0,1,1,1.92,3.36,3.36,0,0,0-.86.16,2.28,2.28,0,0,0-1.61,2.67A1.76,1.76,0,0,0,33,12.13a1.74,1.74,0,0,0,.87-.23,1.45,1.45,0,0,0,.82-1.18c.43.24,1.17.7,2.22,1.43h-.1a4,4,0,0,0-2.94,1.11,2.44,2.44,0,0,0-.54,1.9,1.93,1.93,0,0,0,.11.34,7.48,7.48,0,0,1-2.79-1.61l-.19-.16-.19.16a7.59,7.59,0,0,1-2.8,1.61,2,2,0,0,0,.1-.29,2.5,2.5,0,0,0-.54-2,4,4,0,0,0-2.94-1.11H24C25,11.42,25.76,11,26.2,10.72A1.41,1.41,0,0,0,27,11.9a1.78,1.78,0,0,0,2.6-1.12A2.27,2.27,0,0,0,28,8.11,3.45,3.45,0,0,0,27.16,8,3.82,3.82,0,0,1,28.17,6Zm8.19,8.43h0c5.87,0,12.05,6,12.52,17.42v0c0,.2,0,.36,0,.54,0,.56,0,1.09,0,1.57v.25c0,.53,0,1-.06,1.55,0,.26,0,.5-.05.74l0,.2c0,.19,0,.38,0,.56v0l-.06.57c-1.76,17.71-12.09,19.88-12.2,19.9a3.55,3.55,0,0,1-.87.12,2.47,2.47,0,0,1-1.12-.26A1.56,1.56,0,0,0,35,57a1.64,1.64,0,0,0-.42-1.82,1.77,1.77,0,0,0-1.17-.43l-.21,0h0A1.72,1.72,0,0,0,31.74,56l-.35-.06a3,3,0,0,1,.3-.8h0a4.23,4.23,0,0,0,.33-.93c0-.15-.05-.35-.45-.83a4.46,4.46,0,0,1-.87-1.92l0-.09h-.52l0,.09a4.56,4.56,0,0,1-.88,1.93c-.4.48-.47.66-.44.86a4,4,0,0,0,.34.91,2.94,2.94,0,0,1,.3.78l-.35.05a1.71,1.71,0,0,0-1.43-1.15h0l-.21,0a1.79,1.79,0,0,0-1.17.43,1.66,1.66,0,0,0,.06,2.49,2.47,2.47,0,0,1-1.12.26,3.66,3.66,0,0,1-.84-.11c-.14,0-10.47-2.2-12.22-19.91,0-.19,0-.37-.06-.57v0c0-.18,0-.37,0-.56l0-.2c0-.24,0-.48-.05-.74,0-.5,0-1-.06-1.55V34c0-.5,0-1,0-1.59,0-.18,0-.34,0-.54v0c.47-11.44,6.65-17.42,12.53-17.42h0a1.58,1.58,0,0,0-.14.65A1.48,1.48,0,0,0,25,16.36a1.52,1.52,0,0,0,.88.27,1.84,1.84,0,0,0,.33,0,1.62,1.62,0,0,0,.71-.37,6.08,6.08,0,0,0,.74-.18h0a8.29,8.29,0,0,0,2.75-1.56A8.08,8.08,0,0,0,33.17,16h0a5.16,5.16,0,0,0,.75.19,1.57,1.57,0,0,0,.71.37,1.84,1.84,0,0,0,.33,0,1.49,1.49,0,0,0,.87-.27,1.48,1.48,0,0,0,.66-1.24A1.57,1.57,0,0,0,36.36,14.47ZM31.19,54.83a3.73,3.73,0,0,0-.4,1h-.73a3.43,3.43,0,0,0-.38-1,3.53,3.53,0,0,1-.27-.71,2.31,2.31,0,0,1,.3-.42,4,4,0,0,0,.72-1.24,4.12,4.12,0,0,0,.71,1.24,2.67,2.67,0,0,1,.31.42A3.71,3.71,0,0,1,31.19,54.83ZM17.7,9.9l.84-.07a3,3,0,0,0,1.37-.43,1.8,1.8,0,0,0,.39-1.93,2,2,0,0,1,1,2.62c0,.09-.07.26-.14.43a1.15,1.15,0,0,1-.3.46h0L22.15,10a4.14,4.14,0,0,0,1.63-2.62,2.37,2.37,0,0,0,0-.59h0a2.24,2.24,0,0,0-.07-.34s0-.05,0-.08l-.06-.15-.05-.06a.46.46,0,0,0-.07-.07l0,0-.07,0h0a.45.45,0,0,0-.18.07h0L23,6.31a.64.64,0,0,1-.25.19l-.1,0a.58.58,0,0,1-.18,0h-.05a.69.69,0,0,1-.24,0l-.08,0-.18-.11-.07-.06a.84.84,0,0,1-.18-.23s0,0,0,0a.77.77,0,0,1-.08-.27.28.28,0,0,1,0-.09,2.11,2.11,0,0,1,0-.25l0-.11a1.27,1.27,0,0,1,.2-.38A1.19,1.19,0,0,1,22,4.72a.53.53,0,0,0,.1-.06,1.18,1.18,0,0,1,.19-.11l.14,0,.21-.07.16,0,.18,0h0l.23,0,.18,0a1.22,1.22,0,0,1,.24.1l.17.08a2.52,2.52,0,0,1,.25.21,1.42,1.42,0,0,1,.13.12,2.24,2.24,0,0,1,.33.48,4.07,4.07,0,0,1-.35,3.63l-.24.3-.08.08a.81.81,0,0,1-.16.16h0l0,0a1.16,1.16,0,0,1,.14-.09l.09,0,.19-.11.13-.07.23-.12.16-.08L25,9l.19-.08.3-.11.2-.06L26,8.62l.18,0,.26,0,.29,0h.15l.25,0h.17a2.8,2.8,0,0,1,.5.12l.19.08a2.17,2.17,0,0,1,.54.34,1.68,1.68,0,0,1,.4.54,1.6,1.6,0,0,1,.14.8,1.18,1.18,0,0,1,0,.21h0a1.25,1.25,0,0,1-.16.35l-.06.09a1,1,0,0,1-.2.2s0,0-.05.05a1.68,1.68,0,0,1-.3.15l-.08,0a1.17,1.17,0,0,1-.26,0h-.09l-.19,0-.1,0a1.17,1.17,0,0,1-.26-.1.9.9,0,0,1-.52-.7c0-.23,0-.44,0-.58s-.06-.16-.22-.19h0l-.1,0-.11,0-.19.09-.17.09-.26.14-.23.14-.32.2-.28.17-.38.25-.31.21-.42.29-.35.23-.43.31-.14.1h0c-.22,0-.44.08-.66.12a5.4,5.4,0,0,0-.58.1c-.28.08-.57.17-.9.29A15.82,15.82,0,0,0,14,18.05c-1.07-.46-2.29-1.39-2.15-2.59a5.14,5.14,0,0,1,1.86-3.27,2.52,2.52,0,0,0,.3,1.18,2.15,2.15,0,0,0,1.89,1.17h.05A2.57,2.57,0,0,0,18,13.4a2.8,2.8,0,0,0,.15-2.71,3.25,3.25,0,0,0-.49-.79ZM28.49,67a1.28,1.28,0,0,1-.09.48,1.41,1.41,0,0,1-.22.4,1.17,1.17,0,0,1-.75.42H27.1l-.13,0-.11,0-.12,0-.09,0a.39.39,0,0,1-.1-.08L26.48,68a.39.39,0,0,1-.08-.1l-.06-.08s0-.08-.05-.12l0-.08a.77.77,0,0,1,0-.15s0-.06,0-.09a1.09,1.09,0,0,1,0-.24h0a.66.66,0,0,1,.11-.2l.05,0,.13-.12.08,0a.52.52,0,0,1,.16-.06l.11,0H27l.19,0a.75.75,0,0,1,.47.31.61.61,0,0,1,.11.22h0a1.13,1.13,0,0,0-.47-.83,5.85,5.85,0,0,0-.52-.37q-.4-.24-1-.51L25,65.1l-.42-.2-1.25-.56L22.49,64c-.55-.27-1.13-.56-1.73-.89l-.91-.51c-.61-.36-1.24-.76-1.88-1.2A25.69,25.69,0,0,1,15.09,59a25.15,25.15,0,0,1-3.69-4.28A28.62,28.62,0,0,1,9.73,52,39.37,39.37,0,0,1,5.67,38.43C5.59,37.84.81,34.11.59,26.69A19.43,19.43,0,0,1,.8,23.28h0a18.55,18.55,0,0,1,.38-1.86c.05-.19.11-.37.17-.56.12-.4.24-.8.39-1.19.07-.2.15-.4.23-.59.15-.38.32-.74.49-1.1l.25-.5c.24-.45.49-.88.76-1.29a1.51,1.51,0,0,1,.1-.17c.31-.47.63-.9,1-1.33l.31-.36q.36-.44.75-.84L6,13.1c.25-.24.51-.48.77-.7l.37-.33c.31-.25.63-.49.94-.71l.23-.17a13.44,13.44,0,0,1,1.18-.73l.31-.16q.44-.23.87-.42l.4-.17q.39-.15.78-.27l.39-.12A6.37,6.37,0,0,1,13,9.14l.27-.05a6.56,6.56,0,0,1,1-.08h.25a5.47,5.47,0,0,1,.72.08l.28.07a3.73,3.73,0,0,1,.56.2l.23.1a3,3,0,0,1,.65.46h0a3.16,3.16,0,0,1,.38.44,3,3,0,0,1,.29.53v0a2.49,2.49,0,0,1,.19.65.67.67,0,0,1,0,.2,1.73,1.73,0,0,1,0,.39h0a1.42,1.42,0,0,1-.05.22,1.73,1.73,0,0,1-.07.31.87.87,0,0,1-.1.19c0,.08-.08.17-.13.25l-.15.15h0a1.71,1.71,0,0,1-.18.2h0l-.18.12h0c-.07,0-.14.1-.22.14l-.19.07-.24.08-.21,0h0a1.81,1.81,0,0,1-.23,0h0a1.58,1.58,0,0,1-1.38-.86,1.89,1.89,0,0,1-.24-.88A1.77,1.77,0,0,1,14.82,11h0l-.16.06a9.33,9.33,0,0,0-.86.39l-.27.16a5.25,5.25,0,0,0-1.21,1.19,6.31,6.31,0,0,0-.6,1,5.23,5.23,0,0,0-.48,1.63c-.18,1.51,1.17,2.62,2.44,3.18l.54.2h0a14.5,14.5,0,0,1,6.72-5.5c.12,0,.25-.08.37-.12s.31-.11.48-.15h0a9.26,9.26,0,0,1,1.05-.2l.34,0c.2,0,.4,0,.59,0h.28c1.7.07,3.1.73,2.93,2.37h0a1.11,1.11,0,0,1-.86.93h0l-.19,0-.12,0h-.1a1,1,0,0,1-.33-.14.9.9,0,0,1-.41-.82,1.1,1.1,0,0,1,.48-.83h0a.56.56,0,0,1,.22-.09h.09l.16,0h0a4.71,4.71,0,0,0-1.32-.21H24.5l-.52,0-.55,0c-.2,0-.39.06-.59.1l-.55.1c-.2.05-.39.12-.58.18s-.38.11-.56.18l-.57.24L20,15c-.19.09-.37.21-.56.32s-.36.2-.54.32a6,6,0,0,0-.53.39,6.42,6.42,0,0,0-.53.38l-.51.46c-.17.16-.34.3-.5.46s-.33.36-.49.53l-.48.53c-.15.19-.3.4-.44.6s-.31.39-.45.6-.28.45-.42.68-.27.43-.4.66-.25.51-.38.76-.25.47-.36.72-.22.56-.33.84-.21.51-.31.78-.19.62-.28.93-.18.54-.25.83-.17.71-.24,1.07-.13.54-.19.82-.13.88-.19,1.32c0,.24-.07.47-.1.71-.08.69-.13,1.41-.16,2.15v0c0,.7-.05,1.41,0,2.15h0c0,.08,0,.16,0,.24,0,.53,0,1.05.06,1.57,0,.32.05.63.07.94s0,.38,0,.57c1.64,19,12.73,21,12.73,21a4.32,4.32,0,0,0,.66.11h.32l.26,0,.18,0a3,3,0,0,0,.45-.09h.05a4.08,4.08,0,0,0,.42-.17l.11-.07L27,58l.1-.08a1.14,1.14,0,0,0,.16-.14l.08-.07.11-.13.05-.06.08-.13h0l-.23,0h-.08l-.15,0a.49.49,0,0,1-.17-.06l-.12-.06a1.31,1.31,0,0,1-.12-.11l-.09-.1-.09-.15a.61.61,0,0,1-.05-.12,1,1,0,0,1,0-.17.59.59,0,0,1,0-.13.55.55,0,0,1,0-.18.57.57,0,0,1,0-.13.73.73,0,0,1,.07-.19.42.42,0,0,1,0-.1.92.92,0,0,1,.2-.25,1.33,1.33,0,0,1,.31-.18l.1,0a1.65,1.65,0,0,1,.32-.06h.07a1.08,1.08,0,0,1,.19,0,1.13,1.13,0,0,1,.18,0l.07,0a1.07,1.07,0,0,1,.27.16l.09.09a1.26,1.26,0,0,1,.19.25l.07.12a1.86,1.86,0,0,1,.14.53,2.08,2.08,0,0,1-.24,1.15,3.4,3.4,0,0,1-.77.92c-.07.06-.13.13-.21.19a4.88,4.88,0,0,1-2.89.91,11,11,0,0,1-1.23,3.41h0a30.75,30.75,0,0,1,3.94,2A2.19,2.19,0,0,1,28.49,67V67Zm3.17,2.6a3.92,3.92,0,0,1-.36.5,4.68,4.68,0,0,0-.87,1.53,4.67,4.67,0,0,0-.86-1.53,4.67,4.67,0,0,1-.37-.5,3.85,3.85,0,0,1,.31-.83,3.86,3.86,0,0,0,.5-1.45h0l.42,0h0l.41,0h0a4,4,0,0,0,.5,1.45A3.85,3.85,0,0,1,31.66,69.64Zm.18-3a6.29,6.29,0,0,1-1.4.2h0A5.74,5.74,0,0,1,29,66.6a2.85,2.85,0,0,0-1.41-1.86A17.31,17.31,0,0,0,25,63.33l-.82-.4a11.7,11.7,0,0,0,.91-2.61,5.12,5.12,0,0,0,2.62-.89l.13-.09a3.2,3.2,0,0,0,1.46-2.8h0a10,10,0,0,1,1.15-.09,10.41,10.41,0,0,1,1.17.08v0A3.22,3.22,0,0,0,33,59.34l.13.09a5.16,5.16,0,0,0,2.62.89,11.72,11.72,0,0,0,.92,2.61l-.83.4a17.07,17.07,0,0,0-2.67,1.44A2.8,2.8,0,0,0,31.84,66.61ZM55.19,38.43c-1.69,13-7.2,19.39-12.3,22.93a30,30,0,0,1-2.79,1.71c-.9.49-1.75.9-2.54,1.27L36.1,65c-.46.21-.87.4-1.23.58q-.28.14-.51.27c-.79.43-1.25.85-1.26,1.35h0a.75.75,0,0,1,.58-.53l.19,0H34l.11,0a.44.44,0,0,1,.16.06l.08,0,.13.12.06,0a1,1,0,0,1,.1.21h0a.77.77,0,0,1,0,.25s0,.06,0,.08a.41.41,0,0,1,0,.16s0,0,0,.08a.43.43,0,0,1,0,.12.22.22,0,0,1-.05.08l-.08.1-.07.06-.11.08-.09,0-.12,0-.1,0-.14,0h-.33a1.12,1.12,0,0,1-.74-.42,1.23,1.23,0,0,1-.23-.4,1.86,1.86,0,0,1-.09-.48h0s0-.06,0-.09a2.2,2.2,0,0,1,1.18-1.71,31.46,31.46,0,0,1,3.94-2h0a11,11,0,0,1-1.23-3.41,4.91,4.91,0,0,1-2.89-.91c-.08-.06-.13-.13-.21-.19a3.18,3.18,0,0,1-.76-.92,2,2,0,0,1-.25-1.15h0a1.87,1.87,0,0,1,.15-.52.75.75,0,0,1,.07-.12.94.94,0,0,1,.18-.25.43.43,0,0,1,.1-.09,1,1,0,0,1,.26-.16l.07,0a1.13,1.13,0,0,1,.18,0l.19,0h.07a1.65,1.65,0,0,1,.32.06l.1,0a1.4,1.4,0,0,1,.32.18,1.57,1.57,0,0,1,.2.25l0,.1a.73.73,0,0,1,.07.19s0,.09,0,.13a1.08,1.08,0,0,1,0,.18.59.59,0,0,1,0,.13,1,1,0,0,1,0,.17.61.61,0,0,1,0,.12,1.19,1.19,0,0,1-.09.15l-.08.09a.74.74,0,0,1-.13.12l-.12.06a.49.49,0,0,1-.17.06l-.14,0h-.09l-.22,0h0a.51.51,0,0,0,.08.13l0,.06.11.13.08.07.16.14.1.08.23.14.12.07a3.17,3.17,0,0,0,.41.17h0a3,3,0,0,0,.45.09l.18,0,.26,0h.32a4.13,4.13,0,0,0,.66-.11s11.1-2,12.73-21h0c0-.19,0-.38,0-.57s0-.62.07-.94c0-.52,0-1,.06-1.57v0a1.48,1.48,0,0,0,0-.21h0c0-.74,0-1.45,0-2.15h0v0c0-.74-.08-1.46-.16-2.15,0-.23-.06-.44-.09-.66-.06-.46-.12-.93-.2-1.37-.05-.26-.11-.49-.17-.74s-.16-.78-.25-1.15-.16-.5-.23-.75-.2-.69-.31-1-.19-.48-.28-.72-.23-.61-.36-.9-.22-.44-.33-.67-.26-.55-.41-.81-.25-.41-.37-.61-.29-.5-.45-.73-.27-.37-.41-.56-.32-.44-.48-.64l-.45-.5L44,17.34l-.48-.43c-.18-.17-.36-.34-.54-.49s-.33-.25-.5-.37l-.56-.41c-.17-.11-.35-.2-.52-.3s-.38-.23-.58-.33-.36-.16-.54-.24a6,6,0,0,0-.58-.25c-.18-.07-.36-.12-.55-.18l-.58-.18-.56-.1a5.58,5.58,0,0,0-.59-.1l-.55,0-.51,0h-.14a4.76,4.76,0,0,0-1.32.21h0a1,1,0,0,1,.17,0h.09a.73.73,0,0,1,.22.09h0a1.1,1.1,0,0,1,.48.83.91.91,0,0,1-.4.82,1.06,1.06,0,0,1-.33.14h-.1l-.12,0-.19,0h0a1.1,1.1,0,0,1-.85-.93h0c-.17-1.64,1.22-2.3,2.92-2.37h.28a5.85,5.85,0,0,1,.59,0l.35,0a9.09,9.09,0,0,1,1,.2h0c.16,0,.32.1.48.15l.36.12a14.5,14.5,0,0,1,6.72,5.5h0c1.4-.44,3.19-1.66,3-3.38a5.54,5.54,0,0,0-.49-1.63,5.64,5.64,0,0,0-.6-1,4.88,4.88,0,0,0-1.21-1.19,4,4,0,0,0-.37-.22l-.21-.1-.39-.17L46.05,11h0a1.77,1.77,0,0,1,.57,1.26,1.86,1.86,0,0,1-.23.88A1.59,1.59,0,0,1,45,14h0a1.81,1.81,0,0,1-.23,0h0l-.2,0a1.69,1.69,0,0,1-.24-.08l-.2-.07a1.64,1.64,0,0,1-.22-.14l-.18-.12-.18-.19-.15-.16c-.05-.08-.08-.16-.13-.25s-.07-.12-.1-.19a1.63,1.63,0,0,1-.07-.3c0-.08,0-.15,0-.23h0v0a2.3,2.3,0,0,1,0-.36,1.41,1.41,0,0,1,0-.2,2.26,2.26,0,0,1,.14-.47,1.21,1.21,0,0,1,0-.18v0a3.23,3.23,0,0,1,.67-1h0a3.32,3.32,0,0,1,.65-.46l.23-.1a3.49,3.49,0,0,1,.57-.2l.27-.07A5.62,5.62,0,0,1,46.34,9h.25a6.43,6.43,0,0,1,1,.08l.27.05c.27,0,.55.1.83.18s.26.08.39.12l.77.27.41.17.86.42.32.16c.39.22.78.46,1.18.73l.23.17c.31.22.62.46.93.71l.38.33c.26.22.51.46.76.7l.39.39q.38.4.75.84l.31.36c.33.43.66.86,1,1.33l.11.18c.27.41.51.83.75,1.28.09.16.17.33.25.5.17.36.34.72.49,1.1.08.19.16.39.23.58.15.4.28.8.4,1.21,0,.18.11.36.16.55a18.57,18.57,0,0,1,.39,1.86C61.51,33,55.28,37.76,55.19,38.43Z"/>
            <path d="M19.55,57.46a7,7,0,0,1-1.9,2.19h0a31,31,0,0,0,4.61,3v0a7.83,7.83,0,0,0,1.07-3A18.16,18.16,0,0,1,19.55,57.46Zm2.5,4.38a28.64,28.64,0,0,1-3.47-2.21,9.24,9.24,0,0,0,1.15-1.33,19.16,19.16,0,0,0,3,1.63A10.13,10.13,0,0,1,22.05,61.84Z"/>
            <path d="M18.65,56.75a20,20,0,0,1-3.9-4.42,6.24,6.24,0,0,1-2.51,1.54h0a26.16,26.16,0,0,0,4.41,5A10.52,10.52,0,0,0,18.65,56.75Zm-2,1.31a26.33,26.33,0,0,1-3.52-3.92,6.27,6.27,0,0,0,1.5-.93,20.88,20.88,0,0,0,3.24,3.64A11.65,11.65,0,0,1,16.66,58.06Z"/>
            <path d="M6.21,23.55A4.12,4.12,0,0,1,6.89,23s0-.06,0-.11c0-.3-.18-1-.2-1.89A4.53,4.53,0,0,1,9.05,16.8a5.35,5.35,0,0,1,.5-.27c.44-.17.5-3.35,2.53-4.94a6.62,6.62,0,0,1,1.88-1h0a3,3,0,0,0-.43,0h-.12l-.32,0-.37.05-.36.08-.4.12-.38.13-.43.17-.41.19-.44.23-.42.24-.45.28L9,12.37c-.15.1-.3.22-.46.34L8.12,13c-.16.12-.31.26-.46.39l-.42.38-.45.44c-.13.14-.27.27-.4.42s-.29.33-.44.5l-.38.45-.42.56c-.12.16-.24.32-.35.49s-.26.4-.39.61-.22.33-.32.51-.24.45-.36.68L3.45,19c-.11.25-.22.5-.32.76s-.15.35-.22.53-.2.59-.3.89-.1.31-.14.47c-.13.46-.24.94-.33,1.42h0a19.35,19.35,0,0,0-.32,3.22,15.7,15.7,0,0,0,2.74,8.86h0a5.11,5.11,0,0,1-.2-1.26,8.71,8.71,0,0,1,.69-3.65h0a12.23,12.23,0,0,1-.34-2.88A5.36,5.36,0,0,1,6.21,23.55ZM3.83,32.64a14.53,14.53,0,0,1-1.12-9.46A16.19,16.19,0,0,1,11,11.84a8.87,8.87,0,0,0-1.61,3.55c-.07.24-.14.53-.2.67a3.91,3.91,0,0,0-.44.25c-3.14,1.91-2.67,4.88-2.47,6.15l0,.25a4.52,4.52,0,0,0-.52.44c-2,2.09-1.81,4.83-1.34,7A9,9,0,0,0,3.83,32.64Z"/>
            <path d="M9,45.44l.21,0,.28-.06.21-.05.28-.08.2-.06.27-.09.18-.06.26-.09.12,0,.23-.09.06,0,.17-.09h0a55.41,55.41,0,0,1-1.11-6h0a1.85,1.85,0,0,1-.47.16l-.14,0c-.15,0-.31.07-.47.09l-.1,0L8.54,39H7.31l-.37,0H6.89s0,0,0,0l0,0,0,.09s0,0,0,0a.92.92,0,0,0,0,.16v.06c0,.08,0,.18,0,.27A43,43,0,0,0,8.23,45.5h.28l.19,0ZM7.39,39.59h.43a9.46,9.46,0,0,0,2-.21c.13.91.4,2.59.93,4.93a10,10,0,0,1-2.1.58A42,42,0,0,1,7.39,39.59Z"/>
            <path d="M11,24.34l-.31,0-.5-.06-.29,0-.61-.11L8.71,24l-.16,0h0l-.39,0H8.07l-.22,0L7.56,24l-.2.08a1.35,1.35,0,0,0-.26.15,1.33,1.33,0,0,0-.19.14c-.08.07-.15.15-.23.23s-.11.13-.16.21a2.57,2.57,0,0,0-.18.33,1.58,1.58,0,0,0-.13.26,2.83,2.83,0,0,0-.14.44c0,.11-.06.2-.09.32s-.06.39-.09.61a3,3,0,0,0,0,.31,10,10,0,0,0,0,1.11h0a2.2,2.2,0,0,0,.12.62A1.12,1.12,0,0,1,6,29a1.81,1.81,0,0,0,.28.45h0a1.83,1.83,0,0,0,.42.31l.12.06a2.78,2.78,0,0,0,.51.17h0a5.13,5.13,0,0,0,.6.08h.49c.22,0,.44,0,.66-.05l.27,0c.29,0,.59-.09.87-.15h0a25.49,25.49,0,0,1,1.34-5.47h-.24Zm-1.29,5a8.61,8.61,0,0,1-1.48.15c-1.57,0-1.81-.64-1.84-1.27a4.63,4.63,0,0,1,.76-3.27,1.3,1.3,0,0,1,1-.42l.29,0,.55.09a17.43,17.43,0,0,0,1.73.27A30.05,30.05,0,0,0,9.74,29.33Z"/>
            <path d="M14.13,51.27a27.92,27.92,0,0,1-2.38-5.49s0,0,0,0a7.36,7.36,0,0,1-3.06.94,31,31,0,0,0,2.86,6,.15.15,0,0,1,.07,0,5.1,5.1,0,0,0,2.55-1.46Zm-2.36.8a30.83,30.83,0,0,1-2.33-4.83,7.78,7.78,0,0,0,2-.61,28.56,28.56,0,0,0,2,4.53A4.46,4.46,0,0,1,11.77,52.07Z"/>
            <path d="M10.9,17.88a2.06,2.06,0,0,0-.6-.08h0l-.19,0a1.85,1.85,0,0,0-.41.07,1.45,1.45,0,0,0-.22.09,2.16,2.16,0,0,0-.34.17c-.07,0-.14.1-.21.15a2.11,2.11,0,0,0-.27.25l-.18.2a2.2,2.2,0,0,0-.21.32,2,2,0,0,0-.13.25,2.7,2.7,0,0,0-.14.4,1.34,1.34,0,0,0-.07.27,4,4,0,0,0,0,.5,2.26,2.26,0,0,0,0,.26,4,4,0,0,0,.11.82,1.76,1.76,0,0,0,.22.48l.09.13a2.06,2.06,0,0,0,.25.26l.13.11a2.14,2.14,0,0,0,.32.2l.14.07A2.82,2.82,0,0,0,9.6,23h0a5.23,5.23,0,0,0,.57.12l.17,0,.41,0h.45a6.35,6.35,0,0,0,.79-.06h0a16.3,16.3,0,0,1,1.69-3.37c-.38-.13-1.95-1.66-2.78-1.89Zm2,2.06a16.46,16.46,0,0,0-1.32,2.66,3.85,3.85,0,0,1-.48,0c-.54,0-2.3-.08-2.58-1.18a2.66,2.66,0,0,1,.38-2.33,1.77,1.77,0,0,1,1.41-.73,1.74,1.74,0,0,1,.45.06,7.68,7.68,0,0,1,1.7,1.16C12.62,19.73,12.76,19.85,12.89,19.94Z"/>
            <path d="M7.24,37.8l.34.08.11,0a3.42,3.42,0,0,0,.46,0h.06a5.67,5.67,0,0,0,.9-.08l.09,0a9.13,9.13,0,0,0,1-.22h0c-.13-1.71-.18-3-.18-4.06a17.82,17.82,0,0,1,.12-2.45,9.44,9.44,0,0,1-1,.11H8.87l-.43,0h-.1l-.57,0-.25,0c-.25,0-.48-.05-.72-.09H6.49l-.15,0-.18.07L6,31.28a1.85,1.85,0,0,0-.14.14,1.47,1.47,0,0,0-.1.13,1.28,1.28,0,0,0-.11.2,1,1,0,0,0-.08.18c0,.08,0,.18-.08.27a1.6,1.6,0,0,0,0,.21c0,.11,0,.23,0,.35l0,.24c0,.14,0,.29,0,.45s0,.15,0,.23c0,.25,0,.51,0,.78h0a6.43,6.43,0,0,0,.11.83,1.43,1.43,0,0,0,0,.22c0,.19.09.37.14.53s0,.1,0,.15a3.37,3.37,0,0,0,.24.54.86.86,0,0,1,.07.1,2.75,2.75,0,0,0,.23.33l.1.1a2.07,2.07,0,0,0,.32.28l0,0a2.87,2.87,0,0,0,.39.2ZM6,34.41c-.15-1.88.19-2.47.34-2.63a.33.33,0,0,1,.27-.11h.1a12.13,12.13,0,0,0,1.74.14c.33,0,.67,0,1-.05a40.27,40.27,0,0,0,.1,5.4,6.64,6.64,0,0,1-1.39.19C7.21,37.36,6.19,37,6,34.41Z"/>
          </g>
        </g>
      </g>
    </g>
  </g>
</svg>
